<?xml version="1.0" encoding="UTF-8" standalone="no"?>
<!DOCTYPE svg PUBLIC "-//W3C//DTD SVG 1.1//EN"
 "http://www.w3.org/Graphics/SVG/1.1/DTD/svg11.dtd">
<!-- Generated by graphviz version 2.43.0 (0)
 -->
<!-- Title: directconnect Pages: 1 -->
<svg width="321pt" height="33pt"
 viewBox="0.07 0.07 321.07 33.07" xmlns="http://www.w3.org/2000/svg" xmlns:xlink="http://www.w3.org/1999/xlink">
<g id="graph0" class="graph" transform="scale(1 1) rotate(0) translate(4.07 29.07)">
<title>directconnect</title>
<polygon fill="white" stroke="transparent" points="-4,4 -4,-29 317,-29 317,4 -4,4"/>
<!-- pan&#45;os&#45;python script -->
<g id="node1" class="node">
<title>pan&#45;os&#45;python script</title>
<polygon fill="none" stroke="black" points="120,-25 0,-25 0,0 120,0 120,-25"/>
<text text-anchor="middle" x="60" y="-10" font-family="Times,serif" font-size="10.00">pan&#45;os&#45;python script</text>
</g>
<!-- Panorama -->
<g id="node2" class="node">
<title>Panorama</title>
<polygon fill="lightgrey" stroke="black" points="222,-25 156,-25 156,0 222,0 222,-25"/>
<text text-anchor="middle" x="189" y="-10" font-family="Times,serif" font-size="10.00">Panorama</text>
</g>
<!-- pan&#45;os&#45;python script&#45;&gt;Panorama -->
<g id="edge1" class="edge">
<title>pan&#45;os&#45;python script&#45;&gt;Panorama</title>
<path fill="none" stroke="black" d="M120.04,-12.5C128.69,-12.5 137.46,-12.5 145.69,-12.5"/>
<polygon fill="black" stroke="black" points="145.77,-16 155.77,-12.5 145.77,-9 145.77,-16"/>
</g>
<!-- Firewall -->
<g id="node3" class="node">
<title>Firewall</title>
<polygon fill="lightgrey" stroke="black" points="313,-25 258,-25 258,0 313,0 313,-25"/>
<text text-anchor="middle" x="285.5" y="-10" font-family="Times,serif" font-size="10.00">Firewall</text>
</g>
<!-- Panorama&#45;&gt;Firewall -->
<g id="edge2" class="edge">
<title>Panorama&#45;&gt;Firewall</title>
<path fill="none" stroke="black" d="M222.26,-12.5C230.38,-12.5 239.16,-12.5 247.49,-12.5"/>
<polygon fill="black" stroke="black" points="247.72,-16 257.72,-12.5 247.72,-9 247.72,-16"/>
</g>
</g>
</svg>
