<?xml version="1.0" encoding="UTF-8" standalone="no"?>
<!DOCTYPE svg PUBLIC "-//W3C//DTD SVG 1.1//EN"
 "http://www.w3.org/Graphics/SVG/1.1/DTD/svg11.dtd">
<!-- Generated by graphviz version 2.43.0 (0)
 -->
<!-- Title: directconnect Pages: 1 -->
<svg width="192pt" height="76pt"
 viewBox="0.07 0.07 192.07 76.07" xmlns="http://www.w3.org/2000/svg" xmlns:xlink="http://www.w3.org/1999/xlink">
<g id="graph0" class="graph" transform="scale(1 1) rotate(0) translate(4.07 72.07)">
<title>directconnect</title>
<polygon fill="white" stroke="transparent" points="-4,4 -4,-72 188,-72 188,4 -4,4"/>
<!-- python script -->
<g id="node1" class="node">
<title>python script</title>
<polygon fill="none" stroke="black" points="82,-46 0,-46 0,-21 82,-21 82,-46"/>
<text text-anchor="middle" x="41" y="-31" font-family="Times,serif" font-size="10.00">python script</text>
</g>
<!-- Panorama -->
<g id="node2" class="node">
<title>Panorama</title>
<polygon fill="lightgrey" stroke="black" points="184,-68 118,-68 118,-43 184,-43 184,-68"/>
<text text-anchor="middle" x="151" y="-53" font-family="Times,serif" font-size="10.00">Panorama</text>
</g>
<!-- python script&#45;&gt;Panorama -->
<g id="edge1" class="edge">
<title>python script&#45;&gt;Panorama</title>
<path fill="none" stroke="black" d="M82.22,-41.69C90.57,-43.39 99.4,-45.19 107.83,-46.91"/>
<polygon fill="black" stroke="black" points="107.35,-50.38 117.84,-48.95 108.74,-43.52 107.35,-50.38"/>
</g>
<!-- Firewall -->
<g id="node3" class="node">
<title>Firewall</title>
<polygon fill="lightgrey" stroke="black" points="178.5,-25 123.5,-25 123.5,0 178.5,0 178.5,-25"/>
<text text-anchor="middle" x="151" y="-10" font-family="Times,serif" font-size="10.00">Firewall</text>
</g>
<!-- python script&#45;&gt;Firewall -->
<g id="edge2" class="edge">
<title>python script&#45;&gt;Firewall</title>
<path fill="none" stroke="black" d="M82.22,-25.68C92.36,-23.71 103.21,-21.6 113.18,-19.66"/>
<polygon fill="black" stroke="black" points="114.04,-23.06 123.19,-17.71 112.71,-16.19 114.04,-23.06"/>
</g>
</g>
</svg>
