<?xml version="1.0" encoding="UTF-8" standalone="no"?>
<!DOCTYPE svg PUBLIC "-//W3C//DTD SVG 1.1//EN"
 "http://www.w3.org/Graphics/SVG/1.1/DTD/svg11.dtd">
<!-- Generated by graphviz version 2.43.0 (0)
 -->
<!-- Title: configtree Pages: 1 -->
<svg width="580pt" height="33pt"
 viewBox="0.07 0.07 580.07 33.07" xmlns="http://www.w3.org/2000/svg" xmlns:xlink="http://www.w3.org/1999/xlink">
<g id="graph0" class="graph" transform="scale(1 1) rotate(0) translate(4.07 29.07)">
<title>configtree</title>
<polygon fill="white" stroke="transparent" points="-4,4 -4,-29 576,-29 576,4 -4,4"/>
<!-- device -->
<g id="node1" class="node">
<title>device</title>
<polygon fill="lightpink" stroke="black" points="54,-25 0,-25 0,0 54,0 54,-25"/>
<text text-anchor="middle" x="27" y="-10" font-family="Times,serif" font-size="10.00">device</text>
</g>
<!-- firewall -->
<g id="node2" class="node">
<title>firewall</title>
<polygon fill="lightblue" stroke="black" points="126,-25 72,-25 72,0 126,0 126,-25"/>
<text text-anchor="middle" x="99" y="-10" font-family="Times,serif" font-size="10.00">firewall</text>
</g>
<!-- ha -->
<g id="node3" class="node">
<title>ha</title>
<polygon fill="lavender" stroke="black" points="198,-25 144,-25 144,0 198,0 198,-25"/>
<text text-anchor="middle" x="171" y="-10" font-family="Times,serif" font-size="10.00">ha</text>
</g>
<!-- network -->
<g id="node4" class="node">
<title>network</title>
<polygon fill="lightcyan" stroke="black" points="272,-25 216,-25 216,0 272,0 272,-25"/>
<text text-anchor="middle" x="244" y="-10" font-family="Times,serif" font-size="10.00">network</text>
</g>
<!-- objects -->
<g id="node5" class="node">
<title>objects</title>
<polygon fill="lemonchiffon" stroke="black" points="344,-25 290,-25 290,0 344,0 344,-25"/>
<text text-anchor="middle" x="317" y="-10" font-family="Times,serif" font-size="10.00">objects</text>
</g>
<!-- panorama -->
<g id="node6" class="node">
<title>panorama</title>
<polygon fill="#b4eeb4" stroke="black" points="428,-25 362,-25 362,0 428,0 428,-25"/>
<text text-anchor="middle" x="395" y="-10" font-family="Times,serif" font-size="10.00">panorama</text>
</g>
<!-- plugins -->
<g id="node7" class="node">
<title>plugins</title>
<polygon fill="wheat" stroke="black" points="500,-25 446,-25 446,0 500,0 500,-25"/>
<text text-anchor="middle" x="473" y="-10" font-family="Times,serif" font-size="10.00">plugins</text>
</g>
<!-- policies -->
<g id="node8" class="node">
<title>policies</title>
<polygon fill="lightsalmon" stroke="black" points="572,-25 518,-25 518,0 572,0 572,-25"/>
<text text-anchor="middle" x="545" y="-10" font-family="Times,serif" font-size="10.00">policies</text>
</g>
</g>
</svg>
