<?xml version="1.0" encoding="UTF-8" standalone="no"?>
<!DOCTYPE svg PUBLIC "-//W3C//DTD SVG 1.1//EN"
 "http://www.w3.org/Graphics/SVG/1.1/DTD/svg11.dtd">
<!-- Generated by graphviz version 2.43.0 (0)
 -->
<!-- Title: inheritance840ec6830a Pages: 1 -->
<svg width="297pt" height="101pt"
 viewBox="0.00 0.00 297.00 101.00" xmlns="http://www.w3.org/2000/svg" xmlns:xlink="http://www.w3.org/1999/xlink">
<g id="graph0" class="graph" transform="scale(1 1) rotate(0) translate(4 97)">
<title>inheritance840ec6830a</title>
<!-- Firewall -->
<g id="node1" class="node">
<title>Firewall</title>
<g id="a_node1"><a xlink:title="A Palo Alto Networks Firewall">
<polygon fill="white" stroke="black" stroke-width="0.5" points="289,-19 234,-19 234,0 289,0 289,-19"/>
<text text-anchor="middle" x="261.5" y="-7" font-family="Vera Sans, DejaVu Sans, Liberation Sans, Arial, Helvetica, sans" font-size="10.00">Firewall</text>
</a>
</g>
</g>
<!-- PanDevice -->
<g id="node2" class="node">
<title>PanDevice</title>
<g id="a_node2"><a xlink:title="A Palo Alto Networks device">
<polygon fill="white" stroke="black" stroke-width="0.5" points="198,-19 130,-19 130,0 198,0 198,-19"/>
<text text-anchor="middle" x="164" y="-7" font-family="Vera Sans, DejaVu Sans, Liberation Sans, Arial, Helvetica, sans" font-size="10.00">PanDevice</text>
</a>
</g>
</g>
<!-- PanDevice&#45;&gt;Firewall -->
<g id="edge1" class="edge">
<title>PanDevice&#45;&gt;Firewall</title>
<path fill="none" stroke="black" stroke-width="0.5" d="M198.13,-9.5C208.04,-9.5 218.88,-9.5 228.7,-9.5"/>
<polygon fill="black" stroke="black" stroke-width="0.5" points="228.74,-11.25 233.74,-9.5 228.74,-7.75 228.74,-11.25"/>
</g>
<!-- FirewallCommit -->
<g id="node3" class="node">
<title>FirewallCommit</title>
<g id="a_node3"><a xlink:title="Normalization of a firewall commit.">
<polygon fill="white" stroke="black" stroke-width="0.5" points="94,-56 0,-56 0,-37 94,-37 94,-56"/>
<text text-anchor="middle" x="47" y="-44" font-family="Vera Sans, DejaVu Sans, Liberation Sans, Arial, Helvetica, sans" font-size="10.00">FirewallCommit</text>
</a>
</g>
</g>
<!-- FirewallState -->
<g id="node4" class="node">
<title>FirewallState</title>
<polygon fill="white" stroke="black" stroke-width="0.5" points="87,-93 7,-93 7,-74 87,-74 87,-93"/>
<text text-anchor="middle" x="47" y="-81" font-family="Vera Sans, DejaVu Sans, Liberation Sans, Arial, Helvetica, sans" font-size="10.00">FirewallState</text>
</g>
<!-- PanObject -->
<g id="node5" class="node">
<title>PanObject</title>
<g id="a_node5"><a xlink:title="Base class for all package objects">
<polygon fill="white" stroke="black" stroke-width="0.5" points="79.5,-19 14.5,-19 14.5,0 79.5,0 79.5,-19"/>
<text text-anchor="middle" x="47" y="-7" font-family="Vera Sans, DejaVu Sans, Liberation Sans, Arial, Helvetica, sans" font-size="10.00">PanObject</text>
</a>
</g>
</g>
<!-- PanObject&#45;&gt;PanDevice -->
<g id="edge2" class="edge">
<title>PanObject&#45;&gt;PanDevice</title>
<path fill="none" stroke="black" stroke-width="0.5" d="M79.73,-9.5C93.58,-9.5 109.96,-9.5 124.5,-9.5"/>
<polygon fill="black" stroke="black" stroke-width="0.5" points="124.77,-11.25 129.77,-9.5 124.77,-7.75 124.77,-11.25"/>
</g>
</g>
</svg>
