<?xml version="1.0" encoding="UTF-8" standalone="no"?>
<!DOCTYPE svg PUBLIC "-//W3C//DTD SVG 1.1//EN"
 "http://www.w3.org/Graphics/SVG/1.1/DTD/svg11.dtd">
<!-- Generated by graphviz version 2.43.0 (0)
 -->
<!-- Title: inheritance0d3e889a37 Pages: 1 -->
<svg width="576pt" height="506pt"
 viewBox="0.00 0.00 576.00 505.80" xmlns="http://www.w3.org/2000/svg" xmlns:xlink="http://www.w3.org/1999/xlink">
<g id="graph0" class="graph" transform="scale(1.04 1.04) rotate(0) translate(4 522)">
<title>inheritance0d3e889a37</title>
<!-- PanActivateFeatureAuthCodeError -->
<g id="node1" class="node">
<title>PanActivateFeatureAuthCodeError</title>
<polygon fill="white" stroke="black" stroke-width="0.5" points="424,-389 242,-389 242,-370 424,-370 424,-389"/>
<text text-anchor="middle" x="333" y="-377" font-family="Vera Sans, DejaVu Sans, Liberation Sans, Arial, Helvetica, sans" font-size="10.00">PanActivateFeatureAuthCodeError</text>
</g>
<!-- PanDeviceError -->
<g id="node2" class="node">
<title>PanDeviceError</title>
<g id="a_node2"><a xlink:title="Exception for errors in the PanDevice class">
<polygon fill="white" stroke="black" stroke-width="0.5" points="206,-204 115,-204 115,-185 206,-185 206,-204"/>
<text text-anchor="middle" x="160.5" y="-192" font-family="Vera Sans, DejaVu Sans, Liberation Sans, Arial, Helvetica, sans" font-size="10.00">PanDeviceError</text>
</a>
</g>
</g>
<!-- PanDeviceError&#45;&gt;PanActivateFeatureAuthCodeError -->
<g id="edge1" class="edge">
<title>PanDeviceError&#45;&gt;PanActivateFeatureAuthCodeError</title>
<path fill="none" stroke="black" stroke-width="0.5" d="M163.11,-204.31C168.44,-233.42 188.33,-319.89 242,-361.5 244.94,-363.78 248.1,-365.8 251.41,-367.58"/>
<polygon fill="black" stroke="black" stroke-width="0.5" points="250.74,-369.2 256,-369.86 252.3,-366.07 250.74,-369.2"/>
</g>
<!-- PanApiKeyNotSet -->
<g id="node3" class="node">
<title>PanApiKeyNotSet</title>
<polygon fill="white" stroke="black" stroke-width="0.5" points="383.5,-352 282.5,-352 282.5,-333 383.5,-333 383.5,-352"/>
<text text-anchor="middle" x="333" y="-340" font-family="Vera Sans, DejaVu Sans, Liberation Sans, Arial, Helvetica, sans" font-size="10.00">PanApiKeyNotSet</text>
</g>
<!-- PanDeviceError&#45;&gt;PanApiKeyNotSet -->
<g id="edge2" class="edge">
<title>PanDeviceError&#45;&gt;PanApiKeyNotSet</title>
<path fill="none" stroke="black" stroke-width="0.5" d="M164.49,-204.23C172.57,-228.77 197.3,-293.46 242,-324.5 252.4,-331.72 265.01,-336.19 277.46,-338.93"/>
<polygon fill="black" stroke="black" stroke-width="0.5" points="277.16,-340.65 282.41,-339.93 277.86,-337.22 277.16,-340.65"/>
</g>
<!-- PanDeviceXapiError -->
<g id="node5" class="node">
<title>PanDeviceXapiError</title>
<g id="a_node5"><a xlink:title="General error returned by an API call">
<polygon fill="white" stroke="black" stroke-width="0.5" points="389.5,-315 276.5,-315 276.5,-296 389.5,-296 389.5,-315"/>
<text text-anchor="middle" x="333" y="-303" font-family="Vera Sans, DejaVu Sans, Liberation Sans, Arial, Helvetica, sans" font-size="10.00">PanDeviceXapiError</text>
</a>
</g>
</g>
<!-- PanDeviceError&#45;&gt;PanDeviceXapiError -->
<g id="edge9" class="edge">
<title>PanDeviceError&#45;&gt;PanDeviceXapiError</title>
<path fill="none" stroke="black" stroke-width="0.5" d="M166.9,-204.26C178.14,-223.55 206.02,-266.54 242,-287.5 250.87,-292.67 260.99,-296.38 271.15,-299.03"/>
<polygon fill="black" stroke="black" stroke-width="0.5" points="270.86,-300.76 276.14,-300.25 271.69,-297.36 270.86,-300.76"/>
</g>
<!-- PanDeviceNotSet -->
<g id="node10" class="node">
<title>PanDeviceNotSet</title>
<polygon fill="white" stroke="black" stroke-width="0.5" points="383.5,-278 282.5,-278 282.5,-259 383.5,-259 383.5,-278"/>
<text text-anchor="middle" x="333" y="-266" font-family="Vera Sans, DejaVu Sans, Liberation Sans, Arial, Helvetica, sans" font-size="10.00">PanDeviceNotSet</text>
</g>
<!-- PanDeviceError&#45;&gt;PanDeviceNotSet -->
<g id="edge8" class="edge">
<title>PanDeviceError&#45;&gt;PanDeviceNotSet</title>
<path fill="none" stroke="black" stroke-width="0.5" d="M172.09,-204.05C186.72,-216.69 214.43,-238.76 242,-250.5 253.03,-255.2 265.35,-258.69 277.26,-261.28"/>
<polygon fill="black" stroke="black" stroke-width="0.5" points="277.07,-263.03 282.33,-262.33 277.79,-259.6 277.07,-263.03"/>
</g>
<!-- PanJobTimeout -->
<g id="node15" class="node">
<title>PanJobTimeout</title>
<polygon fill="white" stroke="black" stroke-width="0.5" points="377.5,-241 288.5,-241 288.5,-222 377.5,-222 377.5,-241"/>
<text text-anchor="middle" x="333" y="-229" font-family="Vera Sans, DejaVu Sans, Liberation Sans, Arial, Helvetica, sans" font-size="10.00">PanJobTimeout</text>
</g>
<!-- PanDeviceError&#45;&gt;PanJobTimeout -->
<g id="edge14" class="edge">
<title>PanDeviceError&#45;&gt;PanJobTimeout</title>
<path fill="none" stroke="black" stroke-width="0.5" d="M200.75,-204.05C213.84,-207.16 228.53,-210.56 242,-213.5 255.45,-216.43 270.07,-219.43 283.54,-222.13"/>
<polygon fill="black" stroke="black" stroke-width="0.5" points="283.2,-223.84 288.45,-223.1 283.89,-220.41 283.2,-223.84"/>
</g>
<!-- PanLockError -->
<g id="node16" class="node">
<title>PanLockError</title>
<polygon fill="white" stroke="black" stroke-width="0.5" points="373,-204 293,-204 293,-185 373,-185 373,-204"/>
<text text-anchor="middle" x="333" y="-192" font-family="Vera Sans, DejaVu Sans, Liberation Sans, Arial, Helvetica, sans" font-size="10.00">PanLockError</text>
</g>
<!-- PanDeviceError&#45;&gt;PanLockError -->
<g id="edge15" class="edge">
<title>PanDeviceError&#45;&gt;PanLockError</title>
<path fill="none" stroke="black" stroke-width="0.5" d="M206.3,-194.5C231.35,-194.5 262.47,-194.5 287.48,-194.5"/>
<polygon fill="black" stroke="black" stroke-width="0.5" points="287.72,-196.25 292.72,-194.5 287.72,-192.75 287.72,-196.25"/>
</g>
<!-- PanNotAttachedOnPanorama -->
<g id="node18" class="node">
<title>PanNotAttachedOnPanorama</title>
<polygon fill="white" stroke="black" stroke-width="0.5" points="411.5,-167 254.5,-167 254.5,-148 411.5,-148 411.5,-167"/>
<text text-anchor="middle" x="333" y="-155" font-family="Vera Sans, DejaVu Sans, Liberation Sans, Arial, Helvetica, sans" font-size="10.00">PanNotAttachedOnPanorama</text>
</g>
<!-- PanDeviceError&#45;&gt;PanNotAttachedOnPanorama -->
<g id="edge17" class="edge">
<title>PanDeviceError&#45;&gt;PanNotAttachedOnPanorama</title>
<path fill="none" stroke="black" stroke-width="0.5" d="M200.75,-184.95C213.84,-181.84 228.53,-178.44 242,-175.5 253.58,-172.98 266.03,-170.4 277.86,-168.01"/>
<polygon fill="black" stroke="black" stroke-width="0.5" points="278.33,-169.7 282.89,-167 277.64,-166.27 278.33,-169.7"/>
</g>
<!-- PanNotConnectedOnPanorama -->
<g id="node19" class="node">
<title>PanNotConnectedOnPanorama</title>
<polygon fill="white" stroke="black" stroke-width="0.5" points="415.5,-130 250.5,-130 250.5,-111 415.5,-111 415.5,-130"/>
<text text-anchor="middle" x="333" y="-118" font-family="Vera Sans, DejaVu Sans, Liberation Sans, Arial, Helvetica, sans" font-size="10.00">PanNotConnectedOnPanorama</text>
</g>
<!-- PanDeviceError&#45;&gt;PanNotConnectedOnPanorama -->
<g id="edge18" class="edge">
<title>PanDeviceError&#45;&gt;PanNotConnectedOnPanorama</title>
<path fill="none" stroke="black" stroke-width="0.5" d="M172.09,-184.95C186.72,-172.31 214.43,-150.24 242,-138.5 248.55,-135.71 255.56,-133.35 262.66,-131.34"/>
<polygon fill="black" stroke="black" stroke-width="0.5" points="263.22,-133.01 267.59,-130.01 262.31,-129.63 263.22,-133.01"/>
</g>
<!-- PanObjectError -->
<g id="node20" class="node">
<title>PanObjectError</title>
<polygon fill="white" stroke="black" stroke-width="0.5" points="377.5,-93 288.5,-93 288.5,-74 377.5,-74 377.5,-93"/>
<text text-anchor="middle" x="333" y="-81" font-family="Vera Sans, DejaVu Sans, Liberation Sans, Arial, Helvetica, sans" font-size="10.00">PanObjectError</text>
</g>
<!-- PanDeviceError&#45;&gt;PanObjectError -->
<g id="edge19" class="edge">
<title>PanDeviceError&#45;&gt;PanObjectError</title>
<path fill="none" stroke="black" stroke-width="0.5" d="M166.9,-184.74C178.14,-165.45 206.02,-122.46 242,-101.5 254.39,-94.29 269.18,-89.92 283.16,-87.29"/>
<polygon fill="black" stroke="black" stroke-width="0.5" points="283.64,-88.98 288.27,-86.4 283.04,-85.53 283.64,-88.98"/>
</g>
<!-- PanOutdatedSslError -->
<g id="node22" class="node">
<title>PanOutdatedSslError</title>
<polygon fill="white" stroke="black" stroke-width="0.5" points="391,-56 275,-56 275,-37 391,-37 391,-56"/>
<text text-anchor="middle" x="333" y="-44" font-family="Vera Sans, DejaVu Sans, Liberation Sans, Arial, Helvetica, sans" font-size="10.00">PanOutdatedSslError</text>
</g>
<!-- PanDeviceError&#45;&gt;PanOutdatedSslError -->
<g id="edge21" class="edge">
<title>PanDeviceError&#45;&gt;PanOutdatedSslError</title>
<path fill="none" stroke="black" stroke-width="0.5" d="M164.49,-184.77C172.57,-160.23 197.3,-95.54 242,-64.5 250.32,-58.72 260.07,-54.7 270.01,-51.93"/>
<polygon fill="black" stroke="black" stroke-width="0.5" points="270.5,-53.61 274.9,-50.66 269.62,-50.22 270.5,-53.61"/>
</g>
<!-- PanPendingChanges -->
<g id="node23" class="node">
<title>PanPendingChanges</title>
<polygon fill="white" stroke="black" stroke-width="0.5" points="390.5,-19 275.5,-19 275.5,0 390.5,0 390.5,-19"/>
<text text-anchor="middle" x="333" y="-7" font-family="Vera Sans, DejaVu Sans, Liberation Sans, Arial, Helvetica, sans" font-size="10.00">PanPendingChanges</text>
</g>
<!-- PanDeviceError&#45;&gt;PanPendingChanges -->
<g id="edge22" class="edge">
<title>PanDeviceError&#45;&gt;PanPendingChanges</title>
<path fill="none" stroke="black" stroke-width="0.5" d="M163.11,-184.69C168.44,-155.58 188.33,-69.11 242,-27.5 250.22,-21.12 260.11,-16.83 270.28,-13.97"/>
<polygon fill="black" stroke="black" stroke-width="0.5" points="270.88,-15.62 275.28,-12.68 270,-12.23 270.88,-15.62"/>
</g>
<!-- PanCommitFailed -->
<g id="node4" class="node">
<title>PanCommitFailed</title>
<polygon fill="white" stroke="black" stroke-width="0.5" points="576,-518 475,-518 475,-499 576,-499 576,-518"/>
<text text-anchor="middle" x="525.5" y="-506" font-family="Vera Sans, DejaVu Sans, Liberation Sans, Arial, Helvetica, sans" font-size="10.00">PanCommitFailed</text>
</g>
<!-- PanDeviceXapiError&#45;&gt;PanCommitFailed -->
<g id="edge3" class="edge">
<title>PanDeviceXapiError&#45;&gt;PanCommitFailed</title>
<path fill="none" stroke="black" stroke-width="0.5" d="M389.81,-307.21C402.45,-310.13 414.83,-315.38 424,-324.5 477.53,-377.73 408.2,-435.58 460,-490.5 462.98,-493.66 466.47,-496.28 470.25,-498.46"/>
<polygon fill="black" stroke="black" stroke-width="0.5" points="469.56,-500.07 474.8,-500.8 471.16,-496.96 469.56,-500.07"/>
</g>
<!-- PanCommitInProgress -->
<g id="node6" class="node">
<title>PanCommitInProgress</title>
<polygon fill="white" stroke="black" stroke-width="0.5" points="587.5,-481 463.5,-481 463.5,-462 587.5,-462 587.5,-481"/>
<text text-anchor="middle" x="525.5" y="-469" font-family="Vera Sans, DejaVu Sans, Liberation Sans, Arial, Helvetica, sans" font-size="10.00">PanCommitInProgress</text>
</g>
<!-- PanDeviceXapiError&#45;&gt;PanCommitInProgress -->
<g id="edge4" class="edge">
<title>PanDeviceXapiError&#45;&gt;PanCommitInProgress</title>
<path fill="none" stroke="black" stroke-width="0.5" d="M389.91,-307.7C402.4,-310.63 414.68,-315.76 424,-324.5 467.42,-365.22 417.91,-411.41 460,-453.5 462.11,-455.61 464.44,-457.47 466.93,-459.12"/>
<polygon fill="black" stroke="black" stroke-width="0.5" points="466.37,-460.83 471.57,-461.87 468.15,-457.82 466.37,-460.83"/>
</g>
<!-- PanCommitNotNeeded -->
<g id="node7" class="node">
<title>PanCommitNotNeeded</title>
<polygon fill="white" stroke="black" stroke-width="0.5" points="589.5,-444 461.5,-444 461.5,-425 589.5,-425 589.5,-444"/>
<text text-anchor="middle" x="525.5" y="-432" font-family="Vera Sans, DejaVu Sans, Liberation Sans, Arial, Helvetica, sans" font-size="10.00">PanCommitNotNeeded</text>
</g>
<!-- PanDeviceXapiError&#45;&gt;PanCommitNotNeeded -->
<g id="edge5" class="edge">
<title>PanDeviceXapiError&#45;&gt;PanCommitNotNeeded</title>
<path fill="none" stroke="black" stroke-width="0.5" d="M389.77,-308.49C402.12,-311.41 414.37,-316.34 424,-324.5 457.5,-352.88 427.43,-387.06 460,-416.5 462.49,-418.75 465.24,-420.72 468.16,-422.45"/>
<polygon fill="black" stroke="black" stroke-width="0.5" points="467.63,-424.16 472.87,-424.97 469.28,-421.07 467.63,-424.16"/>
</g>
<!-- PanConnectionTimeout -->
<g id="node8" class="node">
<title>PanConnectionTimeout</title>
<polygon fill="white" stroke="black" stroke-width="0.5" points="590,-407 461,-407 461,-388 590,-388 590,-407"/>
<text text-anchor="middle" x="525.5" y="-395" font-family="Vera Sans, DejaVu Sans, Liberation Sans, Arial, Helvetica, sans" font-size="10.00">PanConnectionTimeout</text>
</g>
<!-- PanDeviceXapiError&#45;&gt;PanConnectionTimeout -->
<g id="edge6" class="edge">
<title>PanDeviceXapiError&#45;&gt;PanConnectionTimeout</title>
<path fill="none" stroke="black" stroke-width="0.5" d="M389.58,-310.2C401.66,-313.08 413.85,-317.56 424,-324.5 448.12,-340.99 436.42,-362.25 460,-379.5 463.37,-381.97 467.07,-384.1 470.93,-385.93"/>
<polygon fill="black" stroke="black" stroke-width="0.5" points="470.25,-387.55 475.53,-387.96 471.66,-384.34 470.25,-387.55"/>
</g>
<!-- PanHAConfigSyncFailed -->
<g id="node11" class="node">
<title>PanHAConfigSyncFailed</title>
<polygon fill="white" stroke="black" stroke-width="0.5" points="591,-370 460,-370 460,-351 591,-351 591,-370"/>
<text text-anchor="middle" x="525.5" y="-358" font-family="Vera Sans, DejaVu Sans, Liberation Sans, Arial, Helvetica, sans" font-size="10.00">PanHAConfigSyncFailed</text>
</g>
<!-- PanDeviceXapiError&#45;&gt;PanHAConfigSyncFailed -->
<g id="edge10" class="edge">
<title>PanDeviceXapiError&#45;&gt;PanHAConfigSyncFailed</title>
<path fill="none" stroke="black" stroke-width="0.5" d="M389.82,-314.96C401.28,-317.55 413.14,-320.71 424,-324.5 440.89,-330.4 443.31,-336.07 460,-342.5 466.61,-345.05 473.73,-347.4 480.74,-349.51"/>
<polygon fill="black" stroke="black" stroke-width="0.5" points="480.28,-351.2 485.57,-350.93 481.26,-347.84 480.28,-351.2"/>
</g>
<!-- PanHASyncInProgress -->
<g id="node12" class="node">
<title>PanHASyncInProgress</title>
<polygon fill="white" stroke="black" stroke-width="0.5" points="586.5,-333 464.5,-333 464.5,-314 586.5,-314 586.5,-333"/>
<text text-anchor="middle" x="525.5" y="-321" font-family="Vera Sans, DejaVu Sans, Liberation Sans, Arial, Helvetica, sans" font-size="10.00">PanHASyncInProgress</text>
</g>
<!-- PanDeviceXapiError&#45;&gt;PanHASyncInProgress -->
<g id="edge11" class="edge">
<title>PanDeviceXapiError&#45;&gt;PanHASyncInProgress</title>
<path fill="none" stroke="black" stroke-width="0.5" d="M389.61,-310.75C411.46,-312.82 436.7,-315.2 459.39,-317.35"/>
<polygon fill="black" stroke="black" stroke-width="0.5" points="459.35,-319.1 464.49,-317.83 459.68,-315.62 459.35,-319.1"/>
</g>
<!-- PanInstallInProgress -->
<g id="node13" class="node">
<title>PanInstallInProgress</title>
<polygon fill="white" stroke="black" stroke-width="0.5" points="583,-296 468,-296 468,-277 583,-277 583,-296"/>
<text text-anchor="middle" x="525.5" y="-284" font-family="Vera Sans, DejaVu Sans, Liberation Sans, Arial, Helvetica, sans" font-size="10.00">PanInstallInProgress</text>
</g>
<!-- PanDeviceXapiError&#45;&gt;PanInstallInProgress -->
<g id="edge12" class="edge">
<title>PanDeviceXapiError&#45;&gt;PanInstallInProgress</title>
<path fill="none" stroke="black" stroke-width="0.5" d="M389.61,-299.95C412.58,-297.66 439.29,-295 462.85,-292.65"/>
<polygon fill="black" stroke="black" stroke-width="0.5" points="463.03,-294.39 467.83,-292.15 462.68,-290.91 463.03,-294.39"/>
</g>
<!-- PanInvalidCredentials -->
<g id="node14" class="node">
<title>PanInvalidCredentials</title>
<polygon fill="white" stroke="black" stroke-width="0.5" points="586.5,-259 464.5,-259 464.5,-240 586.5,-240 586.5,-259"/>
<text text-anchor="middle" x="525.5" y="-247" font-family="Vera Sans, DejaVu Sans, Liberation Sans, Arial, Helvetica, sans" font-size="10.00">PanInvalidCredentials</text>
</g>
<!-- PanDeviceXapiError&#45;&gt;PanInvalidCredentials -->
<g id="edge13" class="edge">
<title>PanDeviceXapiError&#45;&gt;PanInvalidCredentials</title>
<path fill="none" stroke="black" stroke-width="0.5" d="M389.89,-296.93C401.34,-294.45 413.19,-291.34 424,-287.5 441.05,-281.44 443.24,-275.31 460,-268.5 467.12,-265.61 474.84,-262.95 482.38,-260.59"/>
<polygon fill="black" stroke="black" stroke-width="0.5" points="483.29,-262.14 487.57,-259.01 482.27,-258.79 483.29,-262.14"/>
</g>
<!-- PanNoSuchNode -->
<g id="node17" class="node">
<title>PanNoSuchNode</title>
<polygon fill="white" stroke="black" stroke-width="0.5" points="573.5,-222 477.5,-222 477.5,-203 573.5,-203 573.5,-222"/>
<text text-anchor="middle" x="525.5" y="-210" font-family="Vera Sans, DejaVu Sans, Liberation Sans, Arial, Helvetica, sans" font-size="10.00">PanNoSuchNode</text>
</g>
<!-- PanDeviceXapiError&#45;&gt;PanNoSuchNode -->
<g id="edge16" class="edge">
<title>PanDeviceXapiError&#45;&gt;PanNoSuchNode</title>
<path fill="none" stroke="black" stroke-width="0.5" d="M389.6,-301.54C401.68,-298.79 413.86,-294.41 424,-287.5 448.45,-270.83 436.32,-249.24 460,-231.5 463.92,-228.56 468.3,-226.07 472.86,-223.97"/>
<polygon fill="black" stroke="black" stroke-width="0.5" points="473.58,-225.57 477.49,-221.99 472.2,-222.35 473.58,-225.57"/>
</g>
<!-- PanObjectMissing -->
<g id="node21" class="node">
<title>PanObjectMissing</title>
<polygon fill="white" stroke="black" stroke-width="0.5" points="577,-185 474,-185 474,-166 577,-166 577,-185"/>
<text text-anchor="middle" x="525.5" y="-173" font-family="Vera Sans, DejaVu Sans, Liberation Sans, Arial, Helvetica, sans" font-size="10.00">PanObjectMissing</text>
</g>
<!-- PanDeviceXapiError&#45;&gt;PanObjectMissing -->
<g id="edge20" class="edge">
<title>PanDeviceXapiError&#45;&gt;PanObjectMissing</title>
<path fill="none" stroke="black" stroke-width="0.5" d="M389.78,-303.23C402.13,-300.44 414.38,-295.62 424,-287.5 458.18,-258.64 426.92,-223.62 460,-193.5 462.78,-190.97 465.88,-188.79 469.19,-186.92"/>
<polygon fill="black" stroke="black" stroke-width="0.5" points="470.16,-188.39 473.8,-184.55 468.56,-185.28 470.16,-188.39"/>
</g>
<!-- PanSessionTimedOut -->
<g id="node24" class="node">
<title>PanSessionTimedOut</title>
<polygon fill="white" stroke="black" stroke-width="0.5" points="585,-148 466,-148 466,-129 585,-129 585,-148"/>
<text text-anchor="middle" x="525.5" y="-136" font-family="Vera Sans, DejaVu Sans, Liberation Sans, Arial, Helvetica, sans" font-size="10.00">PanSessionTimedOut</text>
</g>
<!-- PanDeviceXapiError&#45;&gt;PanSessionTimedOut -->
<g id="edge23" class="edge">
<title>PanDeviceXapiError&#45;&gt;PanSessionTimedOut</title>
<path fill="none" stroke="black" stroke-width="0.5" d="M389.9,-304C402.39,-301.21 414.67,-296.19 424,-287.5 468.18,-246.34 417.39,-199.28 460,-156.5 462.1,-154.39 464.43,-152.52 466.92,-150.87"/>
<polygon fill="black" stroke="black" stroke-width="0.5" points="468.14,-152.17 471.55,-148.12 466.36,-149.16 468.14,-152.17"/>
</g>
<!-- PanURLError -->
<g id="node25" class="node">
<title>PanURLError</title>
<polygon fill="white" stroke="black" stroke-width="0.5" points="564,-111 487,-111 487,-92 564,-92 564,-111"/>
<text text-anchor="middle" x="525.5" y="-99" font-family="Vera Sans, DejaVu Sans, Liberation Sans, Arial, Helvetica, sans" font-size="10.00">PanURLError</text>
</g>
<!-- PanDeviceXapiError&#45;&gt;PanURLError -->
<g id="edge24" class="edge">
<title>PanDeviceXapiError&#45;&gt;PanURLError</title>
<path fill="none" stroke="black" stroke-width="0.5" d="M389.79,-304.47C402.43,-301.69 414.81,-296.56 424,-287.5 478.36,-233.88 407.68,-175.12 460,-119.5 465.81,-113.33 473.53,-109.21 481.62,-106.48"/>
<polygon fill="black" stroke="black" stroke-width="0.5" points="482.4,-108.07 486.68,-104.95 481.39,-104.72 482.4,-108.07"/>
</g>
<!-- PanXapiError -->
<g id="node9" class="node">
<title>PanXapiError</title>
<polygon fill="white" stroke="black" stroke-width="0.5" points="79,-204 0,-204 0,-185 79,-185 79,-204"/>
<text text-anchor="middle" x="39.5" y="-192" font-family="Vera Sans, DejaVu Sans, Liberation Sans, Arial, Helvetica, sans" font-size="10.00">PanXapiError</text>
</g>
<!-- PanXapiError&#45;&gt;PanDeviceError -->
<g id="edge7" class="edge">
<title>PanXapiError&#45;&gt;PanDeviceError</title>
<path fill="none" stroke="black" stroke-width="0.5" d="M79.14,-194.5C88.84,-194.5 99.4,-194.5 109.58,-194.5"/>
<polygon fill="black" stroke="black" stroke-width="0.5" points="109.86,-196.25 114.86,-194.5 109.86,-192.75 109.86,-196.25"/>
</g>
</g>
</svg>
