<?xml version="1.0" encoding="UTF-8" standalone="no"?>
<!DOCTYPE svg PUBLIC "-//W3C//DTD SVG 1.1//EN"
 "http://www.w3.org/Graphics/SVG/1.1/DTD/svg11.dtd">
<!-- Generated by graphviz version 2.43.0 (0)
 -->
<!-- Title: inheritanceb8763b7c29 Pages: 1 -->
<svg width="198pt" height="64pt"
 viewBox="0.00 0.00 198.00 64.00" xmlns="http://www.w3.org/2000/svg" xmlns:xlink="http://www.w3.org/1999/xlink">
<g id="graph0" class="graph" transform="scale(1 1) rotate(0) translate(4 60)">
<title>inheritanceb8763b7c29</title>
<!-- ContentUpdater -->
<g id="node1" class="node">
<title>ContentUpdater</title>
<polygon fill="white" stroke="black" stroke-width="0.5" points="188,-56 94,-56 94,-37 188,-37 188,-56"/>
<text text-anchor="middle" x="141" y="-44" font-family="Vera Sans, DejaVu Sans, Liberation Sans, Arial, Helvetica, sans" font-size="10.00">ContentUpdater</text>
</g>
<!-- Updater -->
<g id="node2" class="node">
<title>Updater</title>
<g id="a_node2"><a xlink:title="This class is instantiated by the PanDevice class as a software update subsystem">
<polygon fill="white" stroke="black" stroke-width="0.5" points="56,-37 0,-37 0,-18 56,-18 56,-37"/>
<text text-anchor="middle" x="28" y="-25" font-family="Vera Sans, DejaVu Sans, Liberation Sans, Arial, Helvetica, sans" font-size="10.00">Updater</text>
</a>
</g>
</g>
<!-- Updater&#45;&gt;ContentUpdater -->
<g id="edge1" class="edge">
<title>Updater&#45;&gt;ContentUpdater</title>
<path fill="none" stroke="black" stroke-width="0.5" d="M56.15,-32.15C65.95,-33.82 77.36,-35.78 88.54,-37.69"/>
<polygon fill="black" stroke="black" stroke-width="0.5" points="88.44,-39.45 93.66,-38.57 89.03,-36 88.44,-39.45"/>
</g>
<!-- SoftwareUpdater -->
<g id="node3" class="node">
<title>SoftwareUpdater</title>
<polygon fill="white" stroke="black" stroke-width="0.5" points="190,-19 92,-19 92,0 190,0 190,-19"/>
<text text-anchor="middle" x="141" y="-7" font-family="Vera Sans, DejaVu Sans, Liberation Sans, Arial, Helvetica, sans" font-size="10.00">SoftwareUpdater</text>
</g>
<!-- Updater&#45;&gt;SoftwareUpdater -->
<g id="edge2" class="edge">
<title>Updater&#45;&gt;SoftwareUpdater</title>
<path fill="none" stroke="black" stroke-width="0.5" d="M56.15,-23.1C65.42,-21.59 76.13,-19.86 86.73,-18.14"/>
<polygon fill="black" stroke="black" stroke-width="0.5" points="87.26,-19.83 91.91,-17.3 86.7,-16.37 87.26,-19.83"/>
</g>
</g>
</svg>
