<?xml version="1.0" encoding="UTF-8" standalone="no"?>
<!DOCTYPE svg PUBLIC "-//W3C//DTD SVG 1.1//EN"
 "http://www.w3.org/Graphics/SVG/1.1/DTD/svg11.dtd">
<!-- Generated by graphviz version 2.43.0 (0)
 -->
<!-- Title: inheritance1d1f1d0d26 Pages: 1 -->
<svg width="576pt" height="433pt"
 viewBox="0.00 0.00 576.00 433.38" xmlns="http://www.w3.org/2000/svg" xmlns:xlink="http://www.w3.org/1999/xlink">
<g id="graph0" class="graph" transform="scale(1.09 1.09) rotate(0) translate(4 467)">
<title>inheritance1d1f1d0d26</title>
<!-- AccessDomain -->
<g id="node1" class="node">
<title>AccessDomain</title>
<g id="a_node1"><a xlink:title="Prisma Access Multi Tenant Access Domain Configuration">
<polygon fill="white" stroke="black" stroke-width="0.5" points="410.5,-463 321.5,-463 321.5,-444 410.5,-444 410.5,-463"/>
<text text-anchor="middle" x="366" y="-451" font-family="Vera Sans, DejaVu Sans, Liberation Sans, Arial, Helvetica, sans" font-size="10.00">AccessDomain</text>
</a>
</g>
</g>
<!-- VersionedPanObject -->
<g id="node2" class="node">
<title>VersionedPanObject</title>
<g id="a_node2"><a xlink:title="Base class for all versioned package objects.">
<polygon fill="white" stroke="black" stroke-width="0.5" points="243,-241 130,-241 130,-222 243,-222 243,-241"/>
<text text-anchor="middle" x="186.5" y="-229" font-family="Vera Sans, DejaVu Sans, Liberation Sans, Arial, Helvetica, sans" font-size="10.00">VersionedPanObject</text>
</a>
</g>
</g>
<!-- VersionedPanObject&#45;&gt;AccessDomain -->
<g id="edge1" class="edge">
<title>VersionedPanObject&#45;&gt;AccessDomain</title>
<path fill="none" stroke="black" stroke-width="0.5" d="M243.11,-233.85C253.88,-236.73 264.23,-241.58 272,-249.5 330.98,-309.59 251.97,-372.65 308,-435.5 310.52,-438.32 313.47,-440.71 316.69,-442.72"/>
<polygon fill="black" stroke="black" stroke-width="0.5" points="316,-444.34 321.22,-445.24 317.7,-441.28 316,-444.34"/>
</g>
<!-- AggBandwidth -->
<g id="node3" class="node">
<title>AggBandwidth</title>
<g id="a_node3"><a xlink:title="Prisma Access remote networks Aggregated Bandwidth configuration base object">
<polygon fill="white" stroke="black" stroke-width="0.5" points="409.5,-426 322.5,-426 322.5,-407 409.5,-407 409.5,-426"/>
<text text-anchor="middle" x="366" y="-414" font-family="Vera Sans, DejaVu Sans, Liberation Sans, Arial, Helvetica, sans" font-size="10.00">AggBandwidth</text>
</a>
</g>
</g>
<!-- VersionedPanObject&#45;&gt;AggBandwidth -->
<g id="edge2" class="edge">
<title>VersionedPanObject&#45;&gt;AggBandwidth</title>
<path fill="none" stroke="black" stroke-width="0.5" d="M243.28,-234.24C253.91,-237.12 264.15,-241.86 272,-249.5 320.82,-297.01 261.51,-348.7 308,-398.5 310.73,-401.42 313.92,-403.87 317.38,-405.92"/>
<polygon fill="black" stroke="black" stroke-width="0.5" points="317.01,-407.7 322.25,-408.49 318.64,-404.61 317.01,-407.7"/>
</g>
<!-- Bgp -->
<g id="node4" class="node">
<title>Bgp</title>
<g id="a_node4"><a xlink:title="Prisma Access BGP configuration object">
<polygon fill="white" stroke="black" stroke-width="0.5" points="393,-389 339,-389 339,-370 393,-370 393,-389"/>
<text text-anchor="middle" x="366" y="-377" font-family="Vera Sans, DejaVu Sans, Liberation Sans, Arial, Helvetica, sans" font-size="10.00">Bgp</text>
</a>
</g>
</g>
<!-- VersionedPanObject&#45;&gt;Bgp -->
<g id="edge3" class="edge">
<title>VersionedPanObject&#45;&gt;Bgp</title>
<path fill="none" stroke="black" stroke-width="0.5" d="M243.27,-234.82C253.78,-237.68 263.98,-242.27 272,-249.5 310.52,-284.22 271.48,-323.68 308,-360.5 315.01,-367.56 324.7,-372 334.11,-374.79"/>
<polygon fill="black" stroke="black" stroke-width="0.5" points="333.71,-376.49 338.99,-376.1 334.62,-373.11 333.71,-376.49"/>
</g>
<!-- BgpPeer -->
<g id="node5" class="node">
<title>BgpPeer</title>
<g id="a_node5"><a xlink:title="Prisma Access BGP Peer configuration object">
<polygon fill="white" stroke="black" stroke-width="0.5" points="394.5,-352 337.5,-352 337.5,-333 394.5,-333 394.5,-352"/>
<text text-anchor="middle" x="366" y="-340" font-family="Vera Sans, DejaVu Sans, Liberation Sans, Arial, Helvetica, sans" font-size="10.00">BgpPeer</text>
</a>
</g>
</g>
<!-- VersionedPanObject&#45;&gt;BgpPeer -->
<g id="edge4" class="edge">
<title>VersionedPanObject&#45;&gt;BgpPeer</title>
<path fill="none" stroke="black" stroke-width="0.5" d="M243.41,-235.95C253.67,-238.75 263.73,-243.03 272,-249.5 300.8,-272.04 280.5,-299.39 308,-323.5 314.95,-329.59 323.91,-333.74 332.67,-336.57"/>
<polygon fill="black" stroke="black" stroke-width="0.5" points="332.2,-338.26 337.5,-338 333.2,-334.9 332.2,-338.26"/>
</g>
<!-- CloudServicesPlugin -->
<g id="node9" class="node">
<title>CloudServicesPlugin</title>
<g id="a_node9"><a xlink:title="Prisma Access configuration base object">
<polygon fill="white" stroke="black" stroke-width="0.5" points="424,-315 308,-315 308,-296 424,-296 424,-315"/>
<text text-anchor="middle" x="366" y="-303" font-family="Vera Sans, DejaVu Sans, Liberation Sans, Arial, Helvetica, sans" font-size="10.00">CloudServicesPlugin</text>
</a>
</g>
</g>
<!-- VersionedPanObject&#45;&gt;CloudServicesPlugin -->
<g id="edge7" class="edge">
<title>VersionedPanObject&#45;&gt;CloudServicesPlugin</title>
<path fill="none" stroke="black" stroke-width="0.5" d="M243.28,-238.5C253.22,-241.09 263.2,-244.64 272,-249.5 292.09,-260.59 288.57,-274.3 308,-286.5 312.6,-289.39 317.69,-291.89 322.87,-294.03"/>
<polygon fill="black" stroke="black" stroke-width="0.5" points="322.36,-295.71 327.65,-295.91 323.63,-292.45 322.36,-295.71"/>
</g>
<!-- DNSServerBase -->
<g id="node10" class="node">
<title>DNSServerBase</title>
<g id="a_node10"><a xlink:title="Abstract DNS Class, will be inherited for correct XPATH">
<polygon fill="white" stroke="black" stroke-width="0.5" points="412.5,-278 319.5,-278 319.5,-259 412.5,-259 412.5,-278"/>
<text text-anchor="middle" x="366" y="-266" font-family="Vera Sans, DejaVu Sans, Liberation Sans, Arial, Helvetica, sans" font-size="10.00">DNSServerBase</text>
</a>
</g>
</g>
<!-- VersionedPanObject&#45;&gt;DNSServerBase -->
<g id="edge8" class="edge">
<title>VersionedPanObject&#45;&gt;DNSServerBase</title>
<path fill="none" stroke="black" stroke-width="0.5" d="M233.21,-241.03C258.06,-246.21 288.84,-252.62 314.4,-257.95"/>
<polygon fill="black" stroke="black" stroke-width="0.5" points="314.19,-259.7 319.44,-259 314.91,-256.27 314.19,-259.7"/>
</g>
<!-- InternalDnsMatch -->
<g id="node11" class="node">
<title>InternalDnsMatch</title>
<g id="a_node11"><a xlink:title="Prisma Access remote&#45;networks Internal DNS entry configuration base object">
<polygon fill="white" stroke="black" stroke-width="0.5" points="417.5,-241 314.5,-241 314.5,-222 417.5,-222 417.5,-241"/>
<text text-anchor="middle" x="366" y="-229" font-family="Vera Sans, DejaVu Sans, Liberation Sans, Arial, Helvetica, sans" font-size="10.00">InternalDnsMatch</text>
</a>
</g>
</g>
<!-- VersionedPanObject&#45;&gt;InternalDnsMatch -->
<g id="edge9" class="edge">
<title>VersionedPanObject&#45;&gt;InternalDnsMatch</title>
<path fill="none" stroke="black" stroke-width="0.5" d="M243.18,-231.5C264.26,-231.5 288.25,-231.5 309.33,-231.5"/>
<polygon fill="black" stroke="black" stroke-width="0.5" points="309.34,-233.25 314.34,-231.5 309.34,-229.75 309.34,-233.25"/>
</g>
<!-- Link -->
<g id="node12" class="node">
<title>Link</title>
<g id="a_node12"><a xlink:title="Prisma Access ECMP Links config object">
<polygon fill="white" stroke="black" stroke-width="0.5" points="393,-204 339,-204 339,-185 393,-185 393,-204"/>
<text text-anchor="middle" x="366" y="-192" font-family="Vera Sans, DejaVu Sans, Liberation Sans, Arial, Helvetica, sans" font-size="10.00">Link</text>
</a>
</g>
</g>
<!-- VersionedPanObject&#45;&gt;Link -->
<g id="edge10" class="edge">
<title>VersionedPanObject&#45;&gt;Link</title>
<path fill="none" stroke="black" stroke-width="0.5" d="M233.21,-221.97C264.83,-215.38 306.07,-206.78 333.93,-200.98"/>
<polygon fill="black" stroke="black" stroke-width="0.5" points="334.43,-202.66 338.97,-199.93 333.72,-199.23 334.43,-202.66"/>
</g>
<!-- Region -->
<g id="node16" class="node">
<title>Region</title>
<g id="a_node16"><a xlink:title="Prisma Access remote networks Aggregated Bandwidth configuration base object">
<polygon fill="white" stroke="black" stroke-width="0.5" points="393,-167 339,-167 339,-148 393,-148 393,-167"/>
<text text-anchor="middle" x="366" y="-155" font-family="Vera Sans, DejaVu Sans, Liberation Sans, Arial, Helvetica, sans" font-size="10.00">Region</text>
</a>
</g>
</g>
<!-- VersionedPanObject&#45;&gt;Region -->
<g id="edge13" class="edge">
<title>VersionedPanObject&#45;&gt;Region</title>
<path fill="none" stroke="black" stroke-width="0.5" d="M206.37,-221.8C229.82,-209.97 271.23,-189.78 308,-175.5 316.25,-172.3 325.33,-169.23 333.77,-166.56"/>
<polygon fill="black" stroke="black" stroke-width="0.5" points="334.68,-168.11 338.93,-164.96 333.64,-164.77 334.68,-168.11"/>
</g>
<!-- RemoteNetwork -->
<g id="node17" class="node">
<title>RemoteNetwork</title>
<g id="a_node17"><a xlink:title="Prisma Access Remote&#45;Networks Onboarding configuration base object">
<polygon fill="white" stroke="black" stroke-width="0.5" points="414,-130 318,-130 318,-111 414,-111 414,-130"/>
<text text-anchor="middle" x="366" y="-118" font-family="Vera Sans, DejaVu Sans, Liberation Sans, Arial, Helvetica, sans" font-size="10.00">RemoteNetwork</text>
</a>
</g>
</g>
<!-- VersionedPanObject&#45;&gt;RemoteNetwork -->
<g id="edge14" class="edge">
<title>VersionedPanObject&#45;&gt;RemoteNetwork</title>
<path fill="none" stroke="black" stroke-width="0.5" d="M197.29,-221.96C216.79,-203.41 262.56,-162.25 308,-138.5 312.79,-136 317.99,-133.77 323.23,-131.8"/>
<polygon fill="black" stroke="black" stroke-width="0.5" points="323.93,-133.41 328.05,-130.08 322.75,-130.12 323.93,-133.41"/>
</g>
<!-- RemoteNetworks -->
<g id="node18" class="node">
<title>RemoteNetworks</title>
<g id="a_node18"><a xlink:title="Prisma Access Remote&#45;Networks configuration base object">
<polygon fill="white" stroke="black" stroke-width="0.5" points="416.5,-93 315.5,-93 315.5,-74 416.5,-74 416.5,-93"/>
<text text-anchor="middle" x="366" y="-81" font-family="Vera Sans, DejaVu Sans, Liberation Sans, Arial, Helvetica, sans" font-size="10.00">RemoteNetworks</text>
</a>
</g>
</g>
<!-- VersionedPanObject&#45;&gt;RemoteNetworks -->
<g id="edge15" class="edge">
<title>VersionedPanObject&#45;&gt;RemoteNetworks</title>
<path fill="none" stroke="black" stroke-width="0.5" d="M193.83,-221.75C209.94,-197.7 254.96,-135.09 308,-101.5 311.93,-99.01 316.23,-96.84 320.64,-94.96"/>
<polygon fill="black" stroke="black" stroke-width="0.5" points="321.48,-96.51 325.48,-93.03 320.18,-93.26 321.48,-96.51"/>
</g>
<!-- RoutingPreference -->
<g id="node19" class="node">
<title>RoutingPreference</title>
<g id="a_node19"><a xlink:title="Prisma Access routing&#45;preference configuration base object">
<polygon fill="white" stroke="black" stroke-width="0.5" points="419.5,-56 312.5,-56 312.5,-37 419.5,-37 419.5,-56"/>
<text text-anchor="middle" x="366" y="-44" font-family="Vera Sans, DejaVu Sans, Liberation Sans, Arial, Helvetica, sans" font-size="10.00">RoutingPreference</text>
</a>
</g>
</g>
<!-- VersionedPanObject&#45;&gt;RoutingPreference -->
<g id="edge16" class="edge">
<title>VersionedPanObject&#45;&gt;RoutingPreference</title>
<path fill="none" stroke="black" stroke-width="0.5" d="M191.69,-221.93C204.64,-193.48 246.86,-108.69 308,-64.5 311.39,-62.05 315.12,-59.93 319,-58.09"/>
<polygon fill="black" stroke="black" stroke-width="0.5" points="319.74,-59.68 323.61,-56.06 318.33,-56.47 319.74,-59.68"/>
</g>
<!-- Tenants -->
<g id="node22" class="node">
<title>Tenants</title>
<g id="a_node22"><a xlink:title="Prisma Access Multi Tenants/Tenant Configuration">
<polygon fill="white" stroke="black" stroke-width="0.5" points="393,-19 339,-19 339,0 393,0 393,-19"/>
<text text-anchor="middle" x="366" y="-7" font-family="Vera Sans, DejaVu Sans, Liberation Sans, Arial, Helvetica, sans" font-size="10.00">Tenants</text>
</a>
</g>
</g>
<!-- VersionedPanObject&#45;&gt;Tenants -->
<g id="edge19" class="edge">
<title>VersionedPanObject&#45;&gt;Tenants</title>
<path fill="none" stroke="black" stroke-width="0.5" d="M190.45,-221.71C200.83,-189.01 238.77,-82.53 308,-27.5 315.47,-21.56 324.93,-17.57 333.99,-14.89"/>
<polygon fill="black" stroke="black" stroke-width="0.5" points="334.6,-16.53 338.96,-13.53 333.68,-13.16 334.6,-16.53"/>
</g>
<!-- CloudServicesJobsStatus -->
<g id="node6" class="node">
<title>CloudServicesJobsStatus</title>
<g id="a_node6"><a xlink:title="Operational state handling for Cloud Services Plugins jobs.">
<polygon fill="white" stroke="black" stroke-width="0.5" points="255,-315 118,-315 118,-296 255,-296 255,-315"/>
<text text-anchor="middle" x="186.5" y="-303" font-family="Vera Sans, DejaVu Sans, Liberation Sans, Arial, Helvetica, sans" font-size="10.00">CloudServicesJobsStatus</text>
</a>
</g>
</g>
<!-- OpState -->
<g id="node7" class="node">
<title>OpState</title>
<g id="a_node7"><a xlink:title="Parent class for all opstate namespaces.">
<polygon fill="white" stroke="black" stroke-width="0.5" points="60.5,-296 4.5,-296 4.5,-277 60.5,-277 60.5,-296"/>
<text text-anchor="middle" x="32.5" y="-284" font-family="Vera Sans, DejaVu Sans, Liberation Sans, Arial, Helvetica, sans" font-size="10.00">OpState</text>
</a>
</g>
</g>
<!-- OpState&#45;&gt;CloudServicesJobsStatus -->
<g id="edge5" class="edge">
<title>OpState&#45;&gt;CloudServicesJobsStatus</title>
<path fill="none" stroke="black" stroke-width="0.5" d="M60.67,-289.9C75.27,-291.72 94.03,-294.07 112.55,-296.38"/>
<polygon fill="black" stroke="black" stroke-width="0.5" points="112.59,-298.15 117.77,-297.03 113.02,-294.68 112.59,-298.15"/>
</g>
<!-- CloudServicesJobsStatusDetails -->
<g id="node8" class="node">
<title>CloudServicesJobsStatusDetails</title>
<g id="a_node8"><a xlink:title="Operational state handling for Cloud Services Plugin detailed job status.">
<polygon fill="white" stroke="black" stroke-width="0.5" points="272,-278 101,-278 101,-259 272,-259 272,-278"/>
<text text-anchor="middle" x="186.5" y="-266" font-family="Vera Sans, DejaVu Sans, Liberation Sans, Arial, Helvetica, sans" font-size="10.00">CloudServicesJobsStatusDetails</text>
</a>
</g>
</g>
<!-- OpState&#45;&gt;CloudServicesJobsStatusDetails -->
<g id="edge6" class="edge">
<title>OpState&#45;&gt;CloudServicesJobsStatusDetails</title>
<path fill="none" stroke="black" stroke-width="0.5" d="M60.67,-283.28C71.93,-281.95 85.66,-280.32 99.85,-278.64"/>
<polygon fill="black" stroke="black" stroke-width="0.5" points="100.34,-280.35 105.1,-278.02 99.93,-276.87 100.34,-280.35"/>
</g>
<!-- PrimaryInternalDNSServer -->
<g id="node14" class="node">
<title>PrimaryInternalDNSServer</title>
<g id="a_node14"><a xlink:title="A primary Internal DNS Server for remote networks">
<polygon fill="white" stroke="black" stroke-width="0.5" points="611.5,-333 466.5,-333 466.5,-314 611.5,-314 611.5,-333"/>
<text text-anchor="middle" x="539" y="-321" font-family="Vera Sans, DejaVu Sans, Liberation Sans, Arial, Helvetica, sans" font-size="10.00">PrimaryInternalDNSServer</text>
</a>
</g>
</g>
<!-- DNSServerBase&#45;&gt;PrimaryInternalDNSServer -->
<g id="edge11" class="edge">
<title>DNSServerBase&#45;&gt;PrimaryInternalDNSServer</title>
<path fill="none" stroke="black" stroke-width="0.5" d="M400.17,-278C408.06,-280.53 416.4,-283.42 424,-286.5 440.58,-293.21 443.2,-298.34 460,-304.5 468.39,-307.58 477.47,-310.3 486.37,-312.66"/>
<polygon fill="black" stroke="black" stroke-width="0.5" points="486.01,-314.38 491.29,-313.94 486.89,-310.99 486.01,-314.38"/>
</g>
<!-- PrimaryPublicDNSServer -->
<g id="node15" class="node">
<title>PrimaryPublicDNSServer</title>
<g id="a_node15"><a xlink:title="A primary Public DNS Server for remote networks">
<polygon fill="white" stroke="black" stroke-width="0.5" points="607.5,-296 470.5,-296 470.5,-277 607.5,-277 607.5,-296"/>
<text text-anchor="middle" x="539" y="-284" font-family="Vera Sans, DejaVu Sans, Liberation Sans, Arial, Helvetica, sans" font-size="10.00">PrimaryPublicDNSServer</text>
</a>
</g>
</g>
<!-- DNSServerBase&#45;&gt;PrimaryPublicDNSServer -->
<g id="edge12" class="edge">
<title>DNSServerBase&#45;&gt;PrimaryPublicDNSServer</title>
<path fill="none" stroke="black" stroke-width="0.5" d="M412.82,-273.32C429.01,-275.03 447.64,-276.99 465.49,-278.87"/>
<polygon fill="black" stroke="black" stroke-width="0.5" points="465.34,-280.61 470.5,-279.39 465.71,-277.13 465.34,-280.61"/>
</g>
<!-- SecondaryInternalDNSServer -->
<g id="node20" class="node">
<title>SecondaryInternalDNSServer</title>
<g id="a_node20"><a xlink:title="A Secondary Internal DNS Server for remote networks">
<polygon fill="white" stroke="black" stroke-width="0.5" points="618,-259 460,-259 460,-240 618,-240 618,-259"/>
<text text-anchor="middle" x="539" y="-247" font-family="Vera Sans, DejaVu Sans, Liberation Sans, Arial, Helvetica, sans" font-size="10.00">SecondaryInternalDNSServer</text>
</a>
</g>
</g>
<!-- DNSServerBase&#45;&gt;SecondaryInternalDNSServer -->
<g id="edge17" class="edge">
<title>DNSServerBase&#45;&gt;SecondaryInternalDNSServer</title>
<path fill="none" stroke="black" stroke-width="0.5" d="M412.82,-263.41C425.69,-261.98 440.09,-260.38 454.42,-258.79"/>
<polygon fill="black" stroke="black" stroke-width="0.5" points="454.92,-260.49 459.7,-258.2 454.54,-257.01 454.92,-260.49"/>
</g>
<!-- SecondaryPublicDNSServer -->
<g id="node21" class="node">
<title>SecondaryPublicDNSServer</title>
<g id="a_node21"><a xlink:title="A secondary Internal DNS Server for remote networks">
<polygon fill="white" stroke="black" stroke-width="0.5" points="613.5,-222 464.5,-222 464.5,-203 613.5,-203 613.5,-222"/>
<text text-anchor="middle" x="539" y="-210" font-family="Vera Sans, DejaVu Sans, Liberation Sans, Arial, Helvetica, sans" font-size="10.00">SecondaryPublicDNSServer</text>
</a>
</g>
</g>
<!-- DNSServerBase&#45;&gt;SecondaryPublicDNSServer -->
<g id="edge18" class="edge">
<title>DNSServerBase&#45;&gt;SecondaryPublicDNSServer</title>
<path fill="none" stroke="black" stroke-width="0.5" d="M398.7,-258.96C407.04,-256.17 415.94,-252.94 424,-249.5 440.64,-242.39 443.04,-236.81 460,-230.5 467.33,-227.77 475.22,-225.37 483.05,-223.29"/>
<polygon fill="black" stroke="black" stroke-width="0.5" points="483.51,-224.98 487.92,-222.03 482.64,-221.59 483.51,-224.98"/>
</g>
<!-- PanObject -->
<g id="node13" class="node">
<title>PanObject</title>
<g id="a_node13"><a xlink:title="Base class for all package objects">
<polygon fill="white" stroke="black" stroke-width="0.5" points="65,-241 0,-241 0,-222 65,-222 65,-241"/>
<text text-anchor="middle" x="32.5" y="-229" font-family="Vera Sans, DejaVu Sans, Liberation Sans, Arial, Helvetica, sans" font-size="10.00">PanObject</text>
</a>
</g>
</g>
<!-- PanObject&#45;&gt;VersionedPanObject -->
<g id="edge20" class="edge">
<title>PanObject&#45;&gt;VersionedPanObject</title>
<path fill="none" stroke="black" stroke-width="0.5" d="M65.36,-231.5C82.54,-231.5 104.31,-231.5 124.59,-231.5"/>
<polygon fill="black" stroke="black" stroke-width="0.5" points="124.72,-233.25 129.72,-231.5 124.72,-229.75 124.72,-233.25"/>
</g>
</g>
</svg>
