<?xml version="1.0" encoding="UTF-8" standalone="no"?>
<!DOCTYPE svg PUBLIC "-//W3C//DTD SVG 1.1//EN"
 "http://www.w3.org/Graphics/SVG/1.1/DTD/svg11.dtd">
<!-- Generated by graphviz version 2.43.0 (0)
 -->
<!-- Title: inheritanceb63d20861e Pages: 1 -->
<svg width="455pt" height="693pt"
 viewBox="0.00 0.00 455.00 693.00" xmlns="http://www.w3.org/2000/svg" xmlns:xlink="http://www.w3.org/1999/xlink">
<g id="graph0" class="graph" transform="scale(1 1) rotate(0) translate(4 689)">
<title>inheritanceb63d20861e</title>
<!-- AddressGroup -->
<g id="node1" class="node">
<title>AddressGroup</title>
<g id="a_node1"><a xlink:title="Address Group">
<polygon fill="white" stroke="black" stroke-width="0.5" points="391,-685 306,-685 306,-666 391,-666 391,-685"/>
<text text-anchor="middle" x="348.5" y="-673" font-family="Vera Sans, DejaVu Sans, Liberation Sans, Arial, Helvetica, sans" font-size="10.00">AddressGroup</text>
</a>
</g>
</g>
<!-- VersionedPanObject -->
<g id="node2" class="node">
<title>VersionedPanObject</title>
<g id="a_node2"><a xlink:title="Base class for all versioned package objects.">
<polygon fill="white" stroke="black" stroke-width="0.5" points="214,-352 101,-352 101,-333 214,-333 214,-352"/>
<text text-anchor="middle" x="157.5" y="-340" font-family="Vera Sans, DejaVu Sans, Liberation Sans, Arial, Helvetica, sans" font-size="10.00">VersionedPanObject</text>
</a>
</g>
</g>
<!-- VersionedPanObject&#45;&gt;AddressGroup -->
<g id="edge1" class="edge">
<title>VersionedPanObject&#45;&gt;AddressGroup</title>
<path fill="none" stroke="black" stroke-width="0.5" d="M158,-352.02C156.29,-394.93 155.4,-571.93 250,-657.5 263.54,-669.74 282.58,-674.93 300.26,-676.81"/>
<polygon fill="black" stroke="black" stroke-width="0.5" points="300.56,-678.59 305.69,-677.29 300.86,-675.11 300.56,-678.59"/>
</g>
<!-- AddressObject -->
<g id="node3" class="node">
<title>AddressObject</title>
<g id="a_node3"><a xlink:title="Address Object">
<polygon fill="white" stroke="black" stroke-width="0.5" points="392,-648 305,-648 305,-629 392,-629 392,-648"/>
<text text-anchor="middle" x="348.5" y="-636" font-family="Vera Sans, DejaVu Sans, Liberation Sans, Arial, Helvetica, sans" font-size="10.00">AddressObject</text>
</a>
</g>
</g>
<!-- VersionedPanObject&#45;&gt;AddressObject -->
<g id="edge2" class="edge">
<title>VersionedPanObject&#45;&gt;AddressObject</title>
<path fill="none" stroke="black" stroke-width="0.5" d="M158.42,-352.25C158.65,-392.43 165.22,-546.48 250,-620.5 263.51,-632.3 282.18,-637.47 299.57,-639.46"/>
<polygon fill="black" stroke="black" stroke-width="0.5" points="299.77,-641.24 304.92,-639.98 300.11,-637.76 299.77,-641.24"/>
</g>
<!-- ApplicationContainer -->
<g id="node4" class="node">
<title>ApplicationContainer</title>
<g id="a_node4"><a xlink:title="ApplicationContainer object">
<polygon fill="white" stroke="black" stroke-width="0.5" points="408,-611 289,-611 289,-592 408,-592 408,-611"/>
<text text-anchor="middle" x="348.5" y="-599" font-family="Vera Sans, DejaVu Sans, Liberation Sans, Arial, Helvetica, sans" font-size="10.00">ApplicationContainer</text>
</a>
</g>
</g>
<!-- VersionedPanObject&#45;&gt;ApplicationContainer -->
<g id="edge3" class="edge">
<title>VersionedPanObject&#45;&gt;ApplicationContainer</title>
<path fill="none" stroke="black" stroke-width="0.5" d="M158.97,-352.21C161.28,-388.98 174.74,-520.72 250,-583.5 259.63,-591.53 271.67,-596.45 283.97,-599.38"/>
<polygon fill="black" stroke="black" stroke-width="0.5" points="283.62,-601.09 288.88,-600.44 284.36,-597.67 283.62,-601.09"/>
</g>
<!-- ApplicationFilter -->
<g id="node5" class="node">
<title>ApplicationFilter</title>
<g id="a_node5"><a xlink:title="ApplicationFilter Object">
<polygon fill="white" stroke="black" stroke-width="0.5" points="396.5,-574 300.5,-574 300.5,-555 396.5,-555 396.5,-574"/>
<text text-anchor="middle" x="348.5" y="-562" font-family="Vera Sans, DejaVu Sans, Liberation Sans, Arial, Helvetica, sans" font-size="10.00">ApplicationFilter</text>
</a>
</g>
</g>
<!-- VersionedPanObject&#45;&gt;ApplicationFilter -->
<g id="edge4" class="edge">
<title>VersionedPanObject&#45;&gt;ApplicationFilter</title>
<path fill="none" stroke="black" stroke-width="0.5" d="M159.67,-352.09C164.26,-385.08 184.07,-494.71 250,-546.5 262.65,-556.44 279.05,-561.52 294.78,-563.96"/>
<polygon fill="black" stroke="black" stroke-width="0.5" points="294.9,-565.74 300.09,-564.69 295.37,-562.28 294.9,-565.74"/>
</g>
<!-- ApplicationGroup -->
<g id="node6" class="node">
<title>ApplicationGroup</title>
<g id="a_node6"><a xlink:title="ApplicationGroup Object">
<polygon fill="white" stroke="black" stroke-width="0.5" points="399,-537 298,-537 298,-518 399,-518 399,-537"/>
<text text-anchor="middle" x="348.5" y="-525" font-family="Vera Sans, DejaVu Sans, Liberation Sans, Arial, Helvetica, sans" font-size="10.00">ApplicationGroup</text>
</a>
</g>
</g>
<!-- VersionedPanObject&#45;&gt;ApplicationGroup -->
<g id="edge5" class="edge">
<title>VersionedPanObject&#45;&gt;ApplicationGroup</title>
<path fill="none" stroke="black" stroke-width="0.5" d="M160.75,-352.38C167.97,-381.68 193.47,-468.63 250,-509.5 262.34,-518.43 277.8,-523.33 292.75,-525.93"/>
<polygon fill="black" stroke="black" stroke-width="0.5" points="292.59,-527.68 297.8,-526.73 293.13,-524.22 292.59,-527.68"/>
</g>
<!-- ApplicationObject -->
<g id="node7" class="node">
<title>ApplicationObject</title>
<g id="a_node7"><a xlink:title="Application Object">
<polygon fill="white" stroke="black" stroke-width="0.5" points="400,-500 297,-500 297,-481 400,-481 400,-500"/>
<text text-anchor="middle" x="348.5" y="-488" font-family="Vera Sans, DejaVu Sans, Liberation Sans, Arial, Helvetica, sans" font-size="10.00">ApplicationObject</text>
</a>
</g>
</g>
<!-- VersionedPanObject&#45;&gt;ApplicationObject -->
<g id="edge6" class="edge">
<title>VersionedPanObject&#45;&gt;ApplicationObject</title>
<path fill="none" stroke="black" stroke-width="0.5" d="M162.28,-352.29C172.35,-376.97 202.37,-441.97 250,-472.5 262.33,-480.4 277.22,-485.04 291.62,-487.71"/>
<polygon fill="black" stroke="black" stroke-width="0.5" points="291.68,-489.49 296.9,-488.61 292.27,-486.04 291.68,-489.49"/>
</g>
<!-- ApplicationTag -->
<g id="node8" class="node">
<title>ApplicationTag</title>
<g id="a_node8"><a xlink:title="ApplicationTag Object">
<polygon fill="white" stroke="black" stroke-width="0.5" points="392.5,-463 304.5,-463 304.5,-444 392.5,-444 392.5,-463"/>
<text text-anchor="middle" x="348.5" y="-451" font-family="Vera Sans, DejaVu Sans, Liberation Sans, Arial, Helvetica, sans" font-size="10.00">ApplicationTag</text>
</a>
</g>
</g>
<!-- VersionedPanObject&#45;&gt;ApplicationTag -->
<g id="edge7" class="edge">
<title>VersionedPanObject&#45;&gt;ApplicationTag</title>
<path fill="none" stroke="black" stroke-width="0.5" d="M164.76,-352C177.98,-371.23 210.79,-414.68 250,-435.5 265.02,-443.47 282.96,-447.97 299.34,-450.49"/>
<polygon fill="black" stroke="black" stroke-width="0.5" points="299.17,-452.24 304.37,-451.21 299.67,-448.77 299.17,-452.24"/>
</g>
<!-- CustomUrlCategory -->
<g id="node9" class="node">
<title>CustomUrlCategory</title>
<g id="a_node9"><a xlink:title="Custom url category group">
<polygon fill="white" stroke="black" stroke-width="0.5" points="405,-426 292,-426 292,-407 405,-407 405,-426"/>
<text text-anchor="middle" x="348.5" y="-414" font-family="Vera Sans, DejaVu Sans, Liberation Sans, Arial, Helvetica, sans" font-size="10.00">CustomUrlCategory</text>
</a>
</g>
</g>
<!-- VersionedPanObject&#45;&gt;CustomUrlCategory -->
<g id="edge8" class="edge">
<title>VersionedPanObject&#45;&gt;CustomUrlCategory</title>
<path fill="none" stroke="black" stroke-width="0.5" d="M170.75,-352.05C187.62,-364.7 219.39,-386.77 250,-398.5 261.64,-402.96 274.49,-406.33 286.94,-408.88"/>
<polygon fill="black" stroke="black" stroke-width="0.5" points="286.63,-410.61 291.87,-409.86 287.3,-407.17 286.63,-410.61"/>
</g>
<!-- DynamicUserGroup -->
<g id="node10" class="node">
<title>DynamicUserGroup</title>
<g id="a_node10"><a xlink:title="Dynamic user group.">
<polygon fill="white" stroke="black" stroke-width="0.5" points="404.5,-389 292.5,-389 292.5,-370 404.5,-370 404.5,-389"/>
<text text-anchor="middle" x="348.5" y="-377" font-family="Vera Sans, DejaVu Sans, Liberation Sans, Arial, Helvetica, sans" font-size="10.00">DynamicUserGroup</text>
</a>
</g>
</g>
<!-- VersionedPanObject&#45;&gt;DynamicUserGroup -->
<g id="edge9" class="edge">
<title>VersionedPanObject&#45;&gt;DynamicUserGroup</title>
<path fill="none" stroke="black" stroke-width="0.5" d="M203.6,-352.07C218.38,-355.15 234.88,-358.53 250,-361.5 262.82,-364.01 276.62,-366.62 289.68,-369.04"/>
<polygon fill="black" stroke="black" stroke-width="0.5" points="289.6,-370.81 294.83,-370 290.24,-367.37 289.6,-370.81"/>
</g>
<!-- Edl -->
<g id="node11" class="node">
<title>Edl</title>
<g id="a_node11"><a xlink:title="External Dynamic List.">
<polygon fill="white" stroke="black" stroke-width="0.5" points="375.5,-352 321.5,-352 321.5,-333 375.5,-333 375.5,-352"/>
<text text-anchor="middle" x="348.5" y="-340" font-family="Vera Sans, DejaVu Sans, Liberation Sans, Arial, Helvetica, sans" font-size="10.00">Edl</text>
</a>
</g>
</g>
<!-- VersionedPanObject&#45;&gt;Edl -->
<g id="edge10" class="edge">
<title>VersionedPanObject&#45;&gt;Edl</title>
<path fill="none" stroke="black" stroke-width="0.5" d="M214.18,-342.5C247.5,-342.5 288.6,-342.5 316.29,-342.5"/>
<polygon fill="black" stroke="black" stroke-width="0.5" points="316.3,-344.25 321.3,-342.5 316.3,-340.75 316.3,-344.25"/>
</g>
<!-- LogForwardingProfile -->
<g id="node12" class="node">
<title>LogForwardingProfile</title>
<g id="a_node12"><a xlink:title="A log forwarding profile.">
<polygon fill="white" stroke="black" stroke-width="0.5" points="408,-315 289,-315 289,-296 408,-296 408,-315"/>
<text text-anchor="middle" x="348.5" y="-303" font-family="Vera Sans, DejaVu Sans, Liberation Sans, Arial, Helvetica, sans" font-size="10.00">LogForwardingProfile</text>
</a>
</g>
</g>
<!-- VersionedPanObject&#45;&gt;LogForwardingProfile -->
<g id="edge11" class="edge">
<title>VersionedPanObject&#45;&gt;LogForwardingProfile</title>
<path fill="none" stroke="black" stroke-width="0.5" d="M203.6,-332.93C218.38,-329.85 234.88,-326.47 250,-323.5 262.82,-320.99 276.62,-318.38 289.68,-315.96"/>
<polygon fill="black" stroke="black" stroke-width="0.5" points="290.24,-317.63 294.83,-315 289.6,-314.19 290.24,-317.63"/>
</g>
<!-- LogForwardingProfileMatchList -->
<g id="node13" class="node">
<title>LogForwardingProfileMatchList</title>
<g id="a_node13"><a xlink:title="A log forwarding profile match list entry.">
<polygon fill="white" stroke="black" stroke-width="0.5" points="431.5,-278 265.5,-278 265.5,-259 431.5,-259 431.5,-278"/>
<text text-anchor="middle" x="348.5" y="-266" font-family="Vera Sans, DejaVu Sans, Liberation Sans, Arial, Helvetica, sans" font-size="10.00">LogForwardingProfileMatchList</text>
</a>
</g>
</g>
<!-- VersionedPanObject&#45;&gt;LogForwardingProfileMatchList -->
<g id="edge12" class="edge">
<title>VersionedPanObject&#45;&gt;LogForwardingProfileMatchList</title>
<path fill="none" stroke="black" stroke-width="0.5" d="M170.75,-332.95C187.62,-320.3 219.39,-298.23 250,-286.5 257.39,-283.67 265.27,-281.28 273.22,-279.25"/>
<polygon fill="black" stroke="black" stroke-width="0.5" points="273.74,-280.93 278.18,-278.04 272.9,-277.53 273.74,-280.93"/>
</g>
<!-- LogForwardingProfileMatchListAction -->
<g id="node14" class="node">
<title>LogForwardingProfileMatchListAction</title>
<g id="a_node14"><a xlink:title="Action for a log forwarding profile match list entry.">
<polygon fill="white" stroke="black" stroke-width="0.5" points="447,-241 250,-241 250,-222 447,-222 447,-241"/>
<text text-anchor="middle" x="348.5" y="-229" font-family="Vera Sans, DejaVu Sans, Liberation Sans, Arial, Helvetica, sans" font-size="10.00">LogForwardingProfileMatchListAction</text>
</a>
</g>
</g>
<!-- VersionedPanObject&#45;&gt;LogForwardingProfileMatchListAction -->
<g id="edge13" class="edge">
<title>VersionedPanObject&#45;&gt;LogForwardingProfileMatchListAction</title>
<path fill="none" stroke="black" stroke-width="0.5" d="M164.76,-333C177.98,-313.77 210.79,-270.32 250,-249.5 254.95,-246.87 260.21,-244.62 265.63,-242.7"/>
<polygon fill="black" stroke="black" stroke-width="0.5" points="266.47,-244.27 270.65,-241.02 265.35,-240.95 266.47,-244.27"/>
</g>
<!-- Region -->
<g id="node16" class="node">
<title>Region</title>
<g id="a_node16"><a xlink:title="Region.">
<polygon fill="white" stroke="black" stroke-width="0.5" points="375.5,-204 321.5,-204 321.5,-185 375.5,-185 375.5,-204"/>
<text text-anchor="middle" x="348.5" y="-192" font-family="Vera Sans, DejaVu Sans, Liberation Sans, Arial, Helvetica, sans" font-size="10.00">Region</text>
</a>
</g>
</g>
<!-- VersionedPanObject&#45;&gt;Region -->
<g id="edge14" class="edge">
<title>VersionedPanObject&#45;&gt;Region</title>
<path fill="none" stroke="black" stroke-width="0.5" d="M162.28,-332.71C172.35,-308.03 202.37,-243.03 250,-212.5 269.64,-199.91 295.81,-195.61 316.09,-194.34"/>
<polygon fill="black" stroke="black" stroke-width="0.5" points="316.21,-196.09 321.11,-194.08 316.03,-192.59 316.21,-196.09"/>
</g>
<!-- ScheduleObject -->
<g id="node17" class="node">
<title>ScheduleObject</title>
<g id="a_node17"><a xlink:title="Schedule Object">
<polygon fill="white" stroke="black" stroke-width="0.5" points="394.5,-167 302.5,-167 302.5,-148 394.5,-148 394.5,-167"/>
<text text-anchor="middle" x="348.5" y="-155" font-family="Vera Sans, DejaVu Sans, Liberation Sans, Arial, Helvetica, sans" font-size="10.00">ScheduleObject</text>
</a>
</g>
</g>
<!-- VersionedPanObject&#45;&gt;ScheduleObject -->
<g id="edge15" class="edge">
<title>VersionedPanObject&#45;&gt;ScheduleObject</title>
<path fill="none" stroke="black" stroke-width="0.5" d="M160.75,-332.62C167.97,-303.32 193.47,-216.37 250,-175.5 263.53,-165.72 280.79,-160.77 297.03,-158.39"/>
<polygon fill="black" stroke="black" stroke-width="0.5" points="297.3,-160.12 302.03,-157.73 296.84,-156.65 297.3,-160.12"/>
</g>
<!-- SecurityProfileGroup -->
<g id="node18" class="node">
<title>SecurityProfileGroup</title>
<g id="a_node18"><a xlink:title="Security Profile Group object">
<polygon fill="white" stroke="black" stroke-width="0.5" points="406.5,-130 290.5,-130 290.5,-111 406.5,-111 406.5,-130"/>
<text text-anchor="middle" x="348.5" y="-118" font-family="Vera Sans, DejaVu Sans, Liberation Sans, Arial, Helvetica, sans" font-size="10.00">SecurityProfileGroup</text>
</a>
</g>
</g>
<!-- VersionedPanObject&#45;&gt;SecurityProfileGroup -->
<g id="edge16" class="edge">
<title>VersionedPanObject&#45;&gt;SecurityProfileGroup</title>
<path fill="none" stroke="black" stroke-width="0.5" d="M159.67,-332.91C164.26,-299.92 184.07,-190.29 250,-138.5 260.1,-130.57 272.59,-125.73 285.22,-122.86"/>
<polygon fill="black" stroke="black" stroke-width="0.5" points="285.71,-124.54 290.26,-121.81 285,-121.11 285.71,-124.54"/>
</g>
<!-- ServiceGroup -->
<g id="node19" class="node">
<title>ServiceGroup</title>
<g id="a_node19"><a xlink:title="ServiceGroup Object">
<polygon fill="white" stroke="black" stroke-width="0.5" points="389.5,-93 307.5,-93 307.5,-74 389.5,-74 389.5,-93"/>
<text text-anchor="middle" x="348.5" y="-81" font-family="Vera Sans, DejaVu Sans, Liberation Sans, Arial, Helvetica, sans" font-size="10.00">ServiceGroup</text>
</a>
</g>
</g>
<!-- VersionedPanObject&#45;&gt;ServiceGroup -->
<g id="edge17" class="edge">
<title>VersionedPanObject&#45;&gt;ServiceGroup</title>
<path fill="none" stroke="black" stroke-width="0.5" d="M158.97,-332.79C161.28,-296.02 174.74,-164.28 250,-101.5 264.38,-89.51 284.14,-84.46 302.11,-82.61"/>
<polygon fill="black" stroke="black" stroke-width="0.5" points="302.3,-84.35 307.13,-82.17 302,-80.87 302.3,-84.35"/>
</g>
<!-- ServiceObject -->
<g id="node20" class="node">
<title>ServiceObject</title>
<g id="a_node20"><a xlink:title="Service Object">
<polygon fill="white" stroke="black" stroke-width="0.5" points="390.5,-56 306.5,-56 306.5,-37 390.5,-37 390.5,-56"/>
<text text-anchor="middle" x="348.5" y="-44" font-family="Vera Sans, DejaVu Sans, Liberation Sans, Arial, Helvetica, sans" font-size="10.00">ServiceObject</text>
</a>
</g>
</g>
<!-- VersionedPanObject&#45;&gt;ServiceObject -->
<g id="edge18" class="edge">
<title>VersionedPanObject&#45;&gt;ServiceObject</title>
<path fill="none" stroke="black" stroke-width="0.5" d="M158.42,-332.75C158.65,-292.57 165.22,-138.52 250,-64.5 263.99,-52.29 283.49,-47.17 301.39,-45.34"/>
<polygon fill="black" stroke="black" stroke-width="0.5" points="301.56,-47.08 306.39,-44.91 301.26,-43.6 301.56,-47.08"/>
</g>
<!-- Tag -->
<g id="node21" class="node">
<title>Tag</title>
<g id="a_node21"><a xlink:title="Administrative tag">
<polygon fill="white" stroke="black" stroke-width="0.5" points="375.5,-19 321.5,-19 321.5,0 375.5,0 375.5,-19"/>
<text text-anchor="middle" x="348.5" y="-7" font-family="Vera Sans, DejaVu Sans, Liberation Sans, Arial, Helvetica, sans" font-size="10.00">Tag</text>
</a>
</g>
</g>
<!-- VersionedPanObject&#45;&gt;Tag -->
<g id="edge19" class="edge">
<title>VersionedPanObject&#45;&gt;Tag</title>
<path fill="none" stroke="black" stroke-width="0.5" d="M158,-332.98C156.29,-290.07 155.4,-113.07 250,-27.5 267.77,-11.43 295.04,-7.51 316.23,-7.28"/>
<polygon fill="black" stroke="black" stroke-width="0.5" points="316.47,-9.03 321.48,-7.3 316.48,-5.53 316.47,-9.03"/>
</g>
<!-- PanObject -->
<g id="node15" class="node">
<title>PanObject</title>
<g id="a_node15"><a xlink:title="Base class for all package objects">
<polygon fill="white" stroke="black" stroke-width="0.5" points="65,-352 0,-352 0,-333 65,-333 65,-352"/>
<text text-anchor="middle" x="32.5" y="-340" font-family="Vera Sans, DejaVu Sans, Liberation Sans, Arial, Helvetica, sans" font-size="10.00">PanObject</text>
</a>
</g>
</g>
<!-- PanObject&#45;&gt;VersionedPanObject -->
<g id="edge20" class="edge">
<title>PanObject&#45;&gt;VersionedPanObject</title>
<path fill="none" stroke="black" stroke-width="0.5" d="M65.18,-342.5C74.47,-342.5 84.97,-342.5 95.45,-342.5"/>
<polygon fill="black" stroke="black" stroke-width="0.5" points="95.59,-344.25 100.59,-342.5 95.59,-340.75 95.59,-344.25"/>
</g>
</g>
</svg>
