<?xml version="1.0" encoding="UTF-8" standalone="no"?>
<!DOCTYPE svg PUBLIC "-//W3C//DTD SVG 1.1//EN"
 "http://www.w3.org/Graphics/SVG/1.1/DTD/svg11.dtd">
<!-- Generated by graphviz version 2.43.0 (0)
 -->
<!-- Title: inheritancebf5e76af76 Pages: 1 -->
<svg width="376pt" height="212pt"
 viewBox="0.00 0.00 376.00 212.00" xmlns="http://www.w3.org/2000/svg" xmlns:xlink="http://www.w3.org/1999/xlink">
<g id="graph0" class="graph" transform="scale(1 1) rotate(0) translate(4 208)">
<title>inheritancebf5e76af76</title>
<!-- HA1 -->
<g id="node1" class="node">
<title>HA1</title>
<g id="a_node1"><a xlink:title="HA1 interface">
<polygon fill="white" stroke="black" stroke-width="0.5" points="348,-204 294,-204 294,-185 348,-185 348,-204"/>
<text text-anchor="middle" x="321" y="-192" font-family="Vera Sans, DejaVu Sans, Liberation Sans, Arial, Helvetica, sans" font-size="10.00">HA1</text>
</a>
</g>
</g>
<!-- HighAvailabilityInterface -->
<g id="node2" class="node">
<title>HighAvailabilityInterface</title>
<g id="a_node2"><a xlink:title="Base class for high availability interface classes">
<polygon fill="white" stroke="black" stroke-width="0.5" points="238,-111 101,-111 101,-92 238,-92 238,-111"/>
<text text-anchor="middle" x="169.5" y="-99" font-family="Vera Sans, DejaVu Sans, Liberation Sans, Arial, Helvetica, sans" font-size="10.00">HighAvailabilityInterface</text>
</a>
</g>
</g>
<!-- HighAvailabilityInterface&#45;&gt;HA1 -->
<g id="edge1" class="edge">
<title>HighAvailabilityInterface&#45;&gt;HA1</title>
<path fill="none" stroke="black" stroke-width="0.5" d="M181.65,-111.06C199.97,-126.41 237.97,-156.82 274,-176.5 278.72,-179.08 283.9,-181.48 289.02,-183.63"/>
<polygon fill="black" stroke="black" stroke-width="0.5" points="288.4,-185.27 293.69,-185.53 289.72,-182.02 288.4,-185.27"/>
</g>
<!-- HA1Backup -->
<g id="node3" class="node">
<title>HA1Backup</title>
<g id="a_node3"><a xlink:title="HA1 Backup interface">
<polygon fill="white" stroke="black" stroke-width="0.5" points="357,-167 285,-167 285,-148 357,-148 357,-167"/>
<text text-anchor="middle" x="321" y="-155" font-family="Vera Sans, DejaVu Sans, Liberation Sans, Arial, Helvetica, sans" font-size="10.00">HA1Backup</text>
</a>
</g>
</g>
<!-- HighAvailabilityInterface&#45;&gt;HA1Backup -->
<g id="edge2" class="edge">
<title>HighAvailabilityInterface&#45;&gt;HA1Backup</title>
<path fill="none" stroke="black" stroke-width="0.5" d="M196.2,-111.13C222.14,-120.84 262.18,-135.84 289.66,-146.13"/>
<polygon fill="black" stroke="black" stroke-width="0.5" points="289.34,-147.88 294.64,-148 290.57,-144.61 289.34,-147.88"/>
</g>
<!-- HA2 -->
<g id="node4" class="node">
<title>HA2</title>
<g id="a_node4"><a xlink:title="HA2 interface">
<polygon fill="white" stroke="black" stroke-width="0.5" points="348,-130 294,-130 294,-111 348,-111 348,-130"/>
<text text-anchor="middle" x="321" y="-118" font-family="Vera Sans, DejaVu Sans, Liberation Sans, Arial, Helvetica, sans" font-size="10.00">HA2</text>
</a>
</g>
</g>
<!-- HighAvailabilityInterface&#45;&gt;HA2 -->
<g id="edge3" class="edge">
<title>HighAvailabilityInterface&#45;&gt;HA2</title>
<path fill="none" stroke="black" stroke-width="0.5" d="M238.25,-110.11C255.87,-112.35 274,-114.65 288.71,-116.52"/>
<polygon fill="black" stroke="black" stroke-width="0.5" points="288.78,-118.3 293.96,-117.19 289.22,-114.82 288.78,-118.3"/>
</g>
<!-- HA2Backup -->
<g id="node5" class="node">
<title>HA2Backup</title>
<g id="a_node5"><a xlink:title="HA2 Backup interface">
<polygon fill="white" stroke="black" stroke-width="0.5" points="357,-93 285,-93 285,-74 357,-74 357,-93"/>
<text text-anchor="middle" x="321" y="-81" font-family="Vera Sans, DejaVu Sans, Liberation Sans, Arial, Helvetica, sans" font-size="10.00">HA2Backup</text>
</a>
</g>
</g>
<!-- HighAvailabilityInterface&#45;&gt;HA2Backup -->
<g id="edge4" class="edge">
<title>HighAvailabilityInterface&#45;&gt;HA2Backup</title>
<path fill="none" stroke="black" stroke-width="0.5" d="M238.25,-93.34C252.44,-91.63 266.96,-89.89 279.76,-88.34"/>
<polygon fill="black" stroke="black" stroke-width="0.5" points="280,-90.08 284.76,-87.74 279.59,-86.6 280,-90.08"/>
</g>
<!-- HA3 -->
<g id="node6" class="node">
<title>HA3</title>
<g id="a_node6"><a xlink:title="HA3 interface">
<polygon fill="white" stroke="black" stroke-width="0.5" points="348,-56 294,-56 294,-37 348,-37 348,-56"/>
<text text-anchor="middle" x="321" y="-44" font-family="Vera Sans, DejaVu Sans, Liberation Sans, Arial, Helvetica, sans" font-size="10.00">HA3</text>
</a>
</g>
</g>
<!-- HighAvailabilityInterface&#45;&gt;HA3 -->
<g id="edge5" class="edge">
<title>HighAvailabilityInterface&#45;&gt;HA3</title>
<path fill="none" stroke="black" stroke-width="0.5" d="M196.54,-91.92C222.29,-82.45 261.71,-67.94 289.05,-57.89"/>
<polygon fill="black" stroke="black" stroke-width="0.5" points="289.92,-59.43 294.01,-56.06 288.71,-56.15 289.92,-59.43"/>
</g>
<!-- HighAvailability -->
<g id="node7" class="node">
<title>HighAvailability</title>
<g id="a_node7"><a xlink:title="High availability configuration base object">
<polygon fill="white" stroke="black" stroke-width="0.5" points="368,-19 274,-19 274,0 368,0 368,-19"/>
<text text-anchor="middle" x="321" y="-7" font-family="Vera Sans, DejaVu Sans, Liberation Sans, Arial, Helvetica, sans" font-size="10.00">HighAvailability</text>
</a>
</g>
</g>
<!-- VersionedPanObject -->
<g id="node8" class="node">
<title>VersionedPanObject</title>
<g id="a_node8"><a xlink:title="Base class for all versioned package objects.">
<polygon fill="white" stroke="black" stroke-width="0.5" points="226,-56 113,-56 113,-37 226,-37 226,-56"/>
<text text-anchor="middle" x="169.5" y="-44" font-family="Vera Sans, DejaVu Sans, Liberation Sans, Arial, Helvetica, sans" font-size="10.00">VersionedPanObject</text>
</a>
</g>
</g>
<!-- VersionedPanObject&#45;&gt;HighAvailability -->
<g id="edge6" class="edge">
<title>VersionedPanObject&#45;&gt;HighAvailability</title>
<path fill="none" stroke="black" stroke-width="0.5" d="M209,-36.97C229.58,-31.88 255.01,-25.59 276.33,-20.31"/>
<polygon fill="black" stroke="black" stroke-width="0.5" points="276.94,-21.96 281.37,-19.06 276.1,-18.56 276.94,-21.96"/>
</g>
<!-- PanObject -->
<g id="node9" class="node">
<title>PanObject</title>
<g id="a_node9"><a xlink:title="Base class for all package objects">
<polygon fill="white" stroke="black" stroke-width="0.5" points="65,-74 0,-74 0,-55 65,-55 65,-74"/>
<text text-anchor="middle" x="32.5" y="-62" font-family="Vera Sans, DejaVu Sans, Liberation Sans, Arial, Helvetica, sans" font-size="10.00">PanObject</text>
</a>
</g>
</g>
<!-- PanObject&#45;&gt;HighAvailabilityInterface -->
<g id="edge7" class="edge">
<title>PanObject&#45;&gt;HighAvailabilityInterface</title>
<path fill="none" stroke="black" stroke-width="0.5" d="M65.15,-73.17C84.12,-78.37 108.41,-85.03 128.67,-90.58"/>
<polygon fill="black" stroke="black" stroke-width="0.5" points="128.44,-92.34 133.73,-91.97 129.37,-88.96 128.44,-92.34"/>
</g>
<!-- PanObject&#45;&gt;VersionedPanObject -->
<g id="edge8" class="edge">
<title>PanObject&#45;&gt;VersionedPanObject</title>
<path fill="none" stroke="black" stroke-width="0.5" d="M65.15,-60.28C77.96,-58.57 93.21,-56.54 107.99,-54.57"/>
<polygon fill="black" stroke="black" stroke-width="0.5" points="108.26,-56.3 112.99,-53.9 107.8,-52.83 108.26,-56.3"/>
</g>
</g>
</svg>
