<?xml version="1.0" encoding="UTF-8" standalone="no"?>
<!DOCTYPE svg PUBLIC "-//W3C//DTD SVG 1.1//EN"
 "http://www.w3.org/Graphics/SVG/1.1/DTD/svg11.dtd">
<!-- Generated by graphviz version 2.43.0 (0)
 -->
<!-- Title: inheritance1c3267244e Pages: 1 -->
<svg width="474pt" height="230pt"
 viewBox="0.00 0.00 474.00 230.00" xmlns="http://www.w3.org/2000/svg" xmlns:xlink="http://www.w3.org/1999/xlink">
<g id="graph0" class="graph" transform="scale(1 1) rotate(0) translate(4 226)">
<title>inheritance1c3267244e</title>
<!-- DeviceGroup -->
<g id="node1" class="node">
<title>DeviceGroup</title>
<g id="a_node1"><a xlink:title="Panorama Device&#45;group">
<polygon fill="white" stroke="black" stroke-width="0.5" points="455.5,-167 375.5,-167 375.5,-148 455.5,-148 455.5,-167"/>
<text text-anchor="middle" x="415.5" y="-155" font-family="Vera Sans, DejaVu Sans, Liberation Sans, Arial, Helvetica, sans" font-size="10.00">DeviceGroup</text>
</a>
</g>
</g>
<!-- VersionedPanObject -->
<g id="node2" class="node">
<title>VersionedPanObject</title>
<g id="a_node2"><a xlink:title="Base class for all versioned package objects.">
<polygon fill="white" stroke="black" stroke-width="0.5" points="297.5,-93 184.5,-93 184.5,-74 297.5,-74 297.5,-93"/>
<text text-anchor="middle" x="241" y="-81" font-family="Vera Sans, DejaVu Sans, Liberation Sans, Arial, Helvetica, sans" font-size="10.00">VersionedPanObject</text>
</a>
</g>
</g>
<!-- VersionedPanObject&#45;&gt;DeviceGroup -->
<g id="edge1" class="edge">
<title>VersionedPanObject&#45;&gt;DeviceGroup</title>
<path fill="none" stroke="black" stroke-width="0.5" d="M297.6,-90.58C308.44,-93.33 319.4,-97.17 329,-102.5 349.06,-113.64 345.73,-127.04 365,-139.5 368.78,-141.94 372.93,-144.11 377.18,-146.02"/>
<polygon fill="black" stroke="black" stroke-width="0.5" points="376.52,-147.64 381.81,-147.99 377.9,-144.42 376.52,-147.64"/>
</g>
<!-- Template -->
<g id="node11" class="node">
<title>Template</title>
<g id="a_node11"><a xlink:title="A panorama template.">
<polygon fill="white" stroke="black" stroke-width="0.5" points="446.5,-130 384.5,-130 384.5,-111 446.5,-111 446.5,-130"/>
<text text-anchor="middle" x="415.5" y="-118" font-family="Vera Sans, DejaVu Sans, Liberation Sans, Arial, Helvetica, sans" font-size="10.00">Template</text>
</a>
</g>
</g>
<!-- VersionedPanObject&#45;&gt;Template -->
<g id="edge6" class="edge">
<title>VersionedPanObject&#45;&gt;Template</title>
<path fill="none" stroke="black" stroke-width="0.5" d="M286.42,-93.03C315.37,-99.24 352.6,-107.22 379.46,-112.98"/>
<polygon fill="black" stroke="black" stroke-width="0.5" points="379.09,-114.7 384.35,-114.03 379.83,-111.27 379.09,-114.7"/>
</g>
<!-- TemplateStack -->
<g id="node12" class="node">
<title>TemplateStack</title>
<g id="a_node12"><a xlink:title="Template stack.">
<polygon fill="white" stroke="black" stroke-width="0.5" points="460,-93 371,-93 371,-74 460,-74 460,-93"/>
<text text-anchor="middle" x="415.5" y="-81" font-family="Vera Sans, DejaVu Sans, Liberation Sans, Arial, Helvetica, sans" font-size="10.00">TemplateStack</text>
</a>
</g>
</g>
<!-- VersionedPanObject&#45;&gt;TemplateStack -->
<g id="edge7" class="edge">
<title>VersionedPanObject&#45;&gt;TemplateStack</title>
<path fill="none" stroke="black" stroke-width="0.5" d="M297.53,-83.5C319.5,-83.5 344.54,-83.5 365.79,-83.5"/>
<polygon fill="black" stroke="black" stroke-width="0.5" points="365.83,-85.25 370.83,-83.5 365.83,-81.75 365.83,-85.25"/>
</g>
<!-- TemplateVariable -->
<g id="node13" class="node">
<title>TemplateVariable</title>
<g id="a_node13"><a xlink:title="Template or template stack variable.">
<polygon fill="white" stroke="black" stroke-width="0.5" points="466,-56 365,-56 365,-37 466,-37 466,-56"/>
<text text-anchor="middle" x="415.5" y="-44" font-family="Vera Sans, DejaVu Sans, Liberation Sans, Arial, Helvetica, sans" font-size="10.00">TemplateVariable</text>
</a>
</g>
</g>
<!-- VersionedPanObject&#45;&gt;TemplateVariable -->
<g id="edge8" class="edge">
<title>VersionedPanObject&#45;&gt;TemplateVariable</title>
<path fill="none" stroke="black" stroke-width="0.5" d="M286.42,-73.97C310.37,-68.83 340,-62.48 364.73,-57.18"/>
<polygon fill="black" stroke="black" stroke-width="0.5" points="365.41,-58.82 369.93,-56.06 364.67,-55.4 365.41,-58.82"/>
</g>
<!-- DeviceGroupHierarchy -->
<g id="node3" class="node">
<title>DeviceGroupHierarchy</title>
<g id="a_node3"><a xlink:title="Operational state handling for device group hierarchy.">
<polygon fill="white" stroke="black" stroke-width="0.5" points="304.5,-167 177.5,-167 177.5,-148 304.5,-148 304.5,-167"/>
<text text-anchor="middle" x="241" y="-155" font-family="Vera Sans, DejaVu Sans, Liberation Sans, Arial, Helvetica, sans" font-size="10.00">DeviceGroupHierarchy</text>
</a>
</g>
</g>
<!-- OpState -->
<g id="node4" class="node">
<title>OpState</title>
<g id="a_node4"><a xlink:title="Parent class for all opstate namespaces.">
<polygon fill="white" stroke="black" stroke-width="0.5" points="86.5,-148 30.5,-148 30.5,-129 86.5,-129 86.5,-148"/>
<text text-anchor="middle" x="58.5" y="-136" font-family="Vera Sans, DejaVu Sans, Liberation Sans, Arial, Helvetica, sans" font-size="10.00">OpState</text>
</a>
</g>
</g>
<!-- OpState&#45;&gt;DeviceGroupHierarchy -->
<g id="edge2" class="edge">
<title>OpState&#45;&gt;DeviceGroupHierarchy</title>
<path fill="none" stroke="black" stroke-width="0.5" d="M86.52,-141.34C109.11,-143.72 142.33,-147.22 172.08,-150.35"/>
<polygon fill="black" stroke="black" stroke-width="0.5" points="172.06,-152.11 177.21,-150.89 172.42,-148.63 172.06,-152.11"/>
</g>
<!-- PanoramaDeviceGroupHierarchy -->
<g id="node10" class="node">
<title>PanoramaDeviceGroupHierarchy</title>
<g id="a_node10"><a xlink:title="Operational state handling for device group hierarchy.">
<polygon fill="white" stroke="black" stroke-width="0.5" points="329,-130 153,-130 153,-111 329,-111 329,-130"/>
<text text-anchor="middle" x="241" y="-118" font-family="Vera Sans, DejaVu Sans, Liberation Sans, Arial, Helvetica, sans" font-size="10.00">PanoramaDeviceGroupHierarchy</text>
</a>
</g>
</g>
<!-- OpState&#45;&gt;PanoramaDeviceGroupHierarchy -->
<g id="edge5" class="edge">
<title>OpState&#45;&gt;PanoramaDeviceGroupHierarchy</title>
<path fill="none" stroke="black" stroke-width="0.5" d="M86.52,-135.81C103.07,-134.15 125.32,-131.94 147.74,-129.7"/>
<polygon fill="black" stroke="black" stroke-width="0.5" points="148.02,-131.43 152.82,-129.19 147.67,-127.95 148.02,-131.43"/>
</g>
<!-- PanDevice -->
<g id="node5" class="node">
<title>PanDevice</title>
<g id="a_node5"><a xlink:title="A Palo Alto Networks device">
<polygon fill="white" stroke="black" stroke-width="0.5" points="275,-37 207,-37 207,-18 275,-18 275,-37"/>
<text text-anchor="middle" x="241" y="-25" font-family="Vera Sans, DejaVu Sans, Liberation Sans, Arial, Helvetica, sans" font-size="10.00">PanDevice</text>
</a>
</g>
</g>
<!-- Panorama -->
<g id="node7" class="node">
<title>Panorama</title>
<g id="a_node7"><a xlink:title="Panorama device">
<polygon fill="white" stroke="black" stroke-width="0.5" points="448,-19 383,-19 383,0 448,0 448,-19"/>
<text text-anchor="middle" x="415.5" y="-7" font-family="Vera Sans, DejaVu Sans, Liberation Sans, Arial, Helvetica, sans" font-size="10.00">Panorama</text>
</a>
</g>
</g>
<!-- PanDevice&#45;&gt;Panorama -->
<g id="edge4" class="edge">
<title>PanDevice&#45;&gt;Panorama</title>
<path fill="none" stroke="black" stroke-width="0.5" d="M275.26,-24.03C304.6,-20.97 347.29,-16.51 377.66,-13.34"/>
<polygon fill="black" stroke="black" stroke-width="0.5" points="378.01,-15.07 382.8,-12.81 377.64,-11.59 378.01,-15.07"/>
</g>
<!-- PanObject -->
<g id="node6" class="node">
<title>PanObject</title>
<g id="a_node6"><a xlink:title="Base class for all package objects">
<polygon fill="white" stroke="black" stroke-width="0.5" points="91,-74 26,-74 26,-55 91,-55 91,-74"/>
<text text-anchor="middle" x="58.5" y="-62" font-family="Vera Sans, DejaVu Sans, Liberation Sans, Arial, Helvetica, sans" font-size="10.00">PanObject</text>
</a>
</g>
</g>
<!-- PanObject&#45;&gt;VersionedPanObject -->
<g id="edge9" class="edge">
<title>PanObject&#45;&gt;VersionedPanObject</title>
<path fill="none" stroke="black" stroke-width="0.5" d="M91.35,-67.85C115.66,-70.41 149.85,-74.01 179.32,-77.11"/>
<polygon fill="black" stroke="black" stroke-width="0.5" points="179.23,-78.86 184.39,-77.65 179.6,-75.38 179.23,-78.86"/>
</g>
<!-- PanObject&#45;&gt;PanDevice -->
<g id="edge3" class="edge">
<title>PanObject&#45;&gt;PanDevice</title>
<path fill="none" stroke="black" stroke-width="0.5" d="M91.35,-57.97C122.19,-51.65 168.97,-42.06 201.79,-35.33"/>
<polygon fill="black" stroke="black" stroke-width="0.5" points="202.39,-37 206.94,-34.28 201.69,-33.57 202.39,-37"/>
</g>
<!-- PanoramaCommit -->
<g id="node8" class="node">
<title>PanoramaCommit</title>
<g id="a_node8"><a xlink:title="Normalization of a Panorama commit.">
<polygon fill="white" stroke="black" stroke-width="0.5" points="110.5,-185 6.5,-185 6.5,-166 110.5,-166 110.5,-185"/>
<text text-anchor="middle" x="58.5" y="-173" font-family="Vera Sans, DejaVu Sans, Liberation Sans, Arial, Helvetica, sans" font-size="10.00">PanoramaCommit</text>
</a>
</g>
</g>
<!-- PanoramaCommitAll -->
<g id="node9" class="node">
<title>PanoramaCommitAll</title>
<g id="a_node9"><a xlink:title="Normalization of a Panorama commit all.">
<polygon fill="white" stroke="black" stroke-width="0.5" points="117,-222 0,-222 0,-203 117,-203 117,-222"/>
<text text-anchor="middle" x="58.5" y="-210" font-family="Vera Sans, DejaVu Sans, Liberation Sans, Arial, Helvetica, sans" font-size="10.00">PanoramaCommitAll</text>
</a>
</g>
</g>
</g>
</svg>
