<?xml version="1.0" encoding="UTF-8" standalone="no"?>
<!DOCTYPE svg PUBLIC "-//W3C//DTD SVG 1.1//EN"
 "http://www.w3.org/Graphics/SVG/1.1/DTD/svg11.dtd">
<!-- Generated by graphviz version 2.43.0 (0)
 -->
<!-- Title: inheritance253cee96d6 Pages: 1 -->
<svg width="507pt" height="286pt"
 viewBox="0.00 0.00 507.00 286.00" xmlns="http://www.w3.org/2000/svg" xmlns:xlink="http://www.w3.org/1999/xlink">
<g id="graph0" class="graph" transform="scale(1 1) rotate(0) translate(4 282)">
<title>inheritance253cee96d6</title>
<!-- ApplicationOverride -->
<g id="node1" class="node">
<title>ApplicationOverride</title>
<g id="a_node1"><a xlink:title="ApplicationOverride">
<polygon fill="white" stroke="black" stroke-width="0.5" points="371.5,-241 258.5,-241 258.5,-222 371.5,-222 371.5,-241"/>
<text text-anchor="middle" x="315" y="-229" font-family="Vera Sans, DejaVu Sans, Liberation Sans, Arial, Helvetica, sans" font-size="10.00">ApplicationOverride</text>
</a>
</g>
</g>
<!-- VersionedPanObject -->
<g id="node2" class="node">
<title>VersionedPanObject</title>
<g id="a_node2"><a xlink:title="Base class for all versioned package objects.">
<polygon fill="white" stroke="black" stroke-width="0.5" points="214,-130 101,-130 101,-111 214,-111 214,-130"/>
<text text-anchor="middle" x="157.5" y="-118" font-family="Vera Sans, DejaVu Sans, Liberation Sans, Arial, Helvetica, sans" font-size="10.00">VersionedPanObject</text>
</a>
</g>
</g>
<!-- VersionedPanObject&#45;&gt;ApplicationOverride -->
<g id="edge1" class="edge">
<title>VersionedPanObject&#45;&gt;ApplicationOverride</title>
<path fill="none" stroke="black" stroke-width="0.5" d="M199.09,-130.12C204.49,-132.58 209.65,-135.66 214,-139.5 241.4,-163.72 221.93,-190.05 250,-213.5 252.8,-215.84 255.89,-217.88 259.14,-219.65"/>
<polygon fill="black" stroke="black" stroke-width="0.5" points="258.43,-221.25 263.68,-221.91 259.98,-218.11 258.43,-221.25"/>
</g>
<!-- AuthenticationRule -->
<g id="node5" class="node">
<title>AuthenticationRule</title>
<g id="a_node5"><a xlink:title="Authentication Rule">
<polygon fill="white" stroke="black" stroke-width="0.5" points="370,-204 260,-204 260,-185 370,-185 370,-204"/>
<text text-anchor="middle" x="315" y="-192" font-family="Vera Sans, DejaVu Sans, Liberation Sans, Arial, Helvetica, sans" font-size="10.00">AuthenticationRule</text>
</a>
</g>
</g>
<!-- VersionedPanObject&#45;&gt;AuthenticationRule -->
<g id="edge3" class="edge">
<title>VersionedPanObject&#45;&gt;AuthenticationRule</title>
<path fill="none" stroke="black" stroke-width="0.5" d="M194.57,-130.09C201.29,-132.63 208.06,-135.74 214,-139.5 233.38,-151.77 230.28,-164.77 250,-176.5 254.32,-179.07 259.01,-181.28 263.84,-183.19"/>
<polygon fill="black" stroke="black" stroke-width="0.5" points="263.4,-184.89 268.69,-185 264.62,-181.61 263.4,-184.89"/>
</g>
<!-- DecryptionRule -->
<g id="node6" class="node">
<title>DecryptionRule</title>
<g id="a_node6"><a xlink:title="Decryption rule.">
<polygon fill="white" stroke="black" stroke-width="0.5" points="361,-167 269,-167 269,-148 361,-148 361,-167"/>
<text text-anchor="middle" x="315" y="-155" font-family="Vera Sans, DejaVu Sans, Liberation Sans, Arial, Helvetica, sans" font-size="10.00">DecryptionRule</text>
</a>
</g>
</g>
<!-- VersionedPanObject&#45;&gt;DecryptionRule -->
<g id="edge4" class="edge">
<title>VersionedPanObject&#45;&gt;DecryptionRule</title>
<path fill="none" stroke="black" stroke-width="0.5" d="M198.55,-130.03C220.05,-135.14 246.62,-141.47 268.85,-146.76"/>
<polygon fill="black" stroke="black" stroke-width="0.5" points="268.55,-148.48 273.82,-147.94 269.36,-145.08 268.55,-148.48"/>
</g>
<!-- NatRule -->
<g id="node8" class="node">
<title>NatRule</title>
<g id="a_node8"><a xlink:title="NAT Rule">
<polygon fill="white" stroke="black" stroke-width="0.5" points="343,-130 287,-130 287,-111 343,-111 343,-130"/>
<text text-anchor="middle" x="315" y="-118" font-family="Vera Sans, DejaVu Sans, Liberation Sans, Arial, Helvetica, sans" font-size="10.00">NatRule</text>
</a>
</g>
</g>
<!-- VersionedPanObject&#45;&gt;NatRule -->
<g id="edge6" class="edge">
<title>VersionedPanObject&#45;&gt;NatRule</title>
<path fill="none" stroke="black" stroke-width="0.5" d="M214.2,-120.5C236.82,-120.5 262.16,-120.5 281.64,-120.5"/>
<polygon fill="black" stroke="black" stroke-width="0.5" points="281.98,-122.25 286.98,-120.5 281.98,-118.75 281.98,-122.25"/>
</g>
<!-- PolicyBasedForwarding -->
<g id="node10" class="node">
<title>PolicyBasedForwarding</title>
<g id="a_node10"><a xlink:title="PBF rule.">
<polygon fill="white" stroke="black" stroke-width="0.5" points="380,-93 250,-93 250,-74 380,-74 380,-93"/>
<text text-anchor="middle" x="315" y="-81" font-family="Vera Sans, DejaVu Sans, Liberation Sans, Arial, Helvetica, sans" font-size="10.00">PolicyBasedForwarding</text>
</a>
</g>
</g>
<!-- VersionedPanObject&#45;&gt;PolicyBasedForwarding -->
<g id="edge7" class="edge">
<title>VersionedPanObject&#45;&gt;PolicyBasedForwarding</title>
<path fill="none" stroke="black" stroke-width="0.5" d="M198.55,-110.97C220.05,-105.86 246.62,-99.53 268.85,-94.24"/>
<polygon fill="black" stroke="black" stroke-width="0.5" points="269.36,-95.92 273.82,-93.06 268.55,-92.52 269.36,-95.92"/>
</g>
<!-- Rulebase -->
<g id="node12" class="node">
<title>Rulebase</title>
<g id="a_node12"><a xlink:title="Rulebase for a Firewall">
<polygon fill="white" stroke="black" stroke-width="0.5" points="346,-56 284,-56 284,-37 346,-37 346,-56"/>
<text text-anchor="middle" x="315" y="-44" font-family="Vera Sans, DejaVu Sans, Liberation Sans, Arial, Helvetica, sans" font-size="10.00">Rulebase</text>
</a>
</g>
</g>
<!-- VersionedPanObject&#45;&gt;Rulebase -->
<g id="edge11" class="edge">
<title>VersionedPanObject&#45;&gt;Rulebase</title>
<path fill="none" stroke="black" stroke-width="0.5" d="M171.51,-110.94C188.7,-98.68 220.3,-77.47 250,-64.5 259.1,-60.53 269.31,-57.19 278.85,-54.52"/>
<polygon fill="black" stroke="black" stroke-width="0.5" points="279.41,-56.18 283.77,-53.18 278.49,-52.8 279.41,-56.18"/>
</g>
<!-- SecurityRule -->
<g id="node16" class="node">
<title>SecurityRule</title>
<g id="a_node16"><a xlink:title="Security Rule">
<polygon fill="white" stroke="black" stroke-width="0.5" points="354,-19 276,-19 276,0 354,0 354,-19"/>
<text text-anchor="middle" x="315" y="-7" font-family="Vera Sans, DejaVu Sans, Liberation Sans, Arial, Helvetica, sans" font-size="10.00">SecurityRule</text>
</a>
</g>
</g>
<!-- VersionedPanObject&#45;&gt;SecurityRule -->
<g id="edge13" class="edge">
<title>VersionedPanObject&#45;&gt;SecurityRule</title>
<path fill="none" stroke="black" stroke-width="0.5" d="M165.34,-110.71C179.13,-91.74 212.17,-49.86 250,-27.5 256.38,-23.73 263.58,-20.72 270.79,-18.32"/>
<polygon fill="black" stroke="black" stroke-width="0.5" points="271.53,-19.93 275.78,-16.76 270.49,-16.59 271.53,-19.93"/>
</g>
<!-- AuditCommentLog -->
<g id="node3" class="node">
<title>AuditCommentLog</title>
<g id="a_node3"><a xlink:title="A single audit comment log entry.">
<polygon fill="white" stroke="black" stroke-width="0.5" points="211,-278 104,-278 104,-259 211,-259 211,-278"/>
<text text-anchor="middle" x="157.5" y="-266" font-family="Vera Sans, DejaVu Sans, Liberation Sans, Arial, Helvetica, sans" font-size="10.00">AuditCommentLog</text>
</a>
</g>
</g>
<!-- OpState -->
<g id="node4" class="node">
<title>OpState</title>
<g id="a_node4"><a xlink:title="Parent class for all opstate namespaces.">
<polygon fill="white" stroke="black" stroke-width="0.5" points="60.5,-222 4.5,-222 4.5,-203 60.5,-203 60.5,-222"/>
<text text-anchor="middle" x="32.5" y="-210" font-family="Vera Sans, DejaVu Sans, Liberation Sans, Arial, Helvetica, sans" font-size="10.00">OpState</text>
</a>
</g>
</g>
<!-- OpState&#45;&gt;AuditCommentLog -->
<g id="edge2" class="edge">
<title>OpState&#45;&gt;AuditCommentLog</title>
<path fill="none" stroke="black" stroke-width="0.5" d="M48.6,-222.16C61.99,-230.43 82.28,-242.29 101,-250.5 106.58,-252.95 112.6,-255.24 118.55,-257.31"/>
<polygon fill="black" stroke="black" stroke-width="0.5" points="118.22,-259.05 123.52,-259 119.35,-255.73 118.22,-259.05"/>
</g>
<!-- HitCount -->
<g id="node7" class="node">
<title>HitCount</title>
<g id="a_node7"><a xlink:title="Hit count operational data.">
<polygon fill="white" stroke="black" stroke-width="0.5" points="187,-241 128,-241 128,-222 187,-222 187,-241"/>
<text text-anchor="middle" x="157.5" y="-229" font-family="Vera Sans, DejaVu Sans, Liberation Sans, Arial, Helvetica, sans" font-size="10.00">HitCount</text>
</a>
</g>
</g>
<!-- OpState&#45;&gt;HitCount -->
<g id="edge5" class="edge">
<title>OpState&#45;&gt;HitCount</title>
<path fill="none" stroke="black" stroke-width="0.5" d="M60.8,-216.72C79.04,-219.53 103.17,-223.26 122.64,-226.27"/>
<polygon fill="black" stroke="black" stroke-width="0.5" points="122.79,-228.06 128,-227.1 123.32,-224.6 122.79,-228.06"/>
</g>
<!-- RuleAuditComment -->
<g id="node14" class="node">
<title>RuleAuditComment</title>
<g id="a_node14"><a xlink:title="Operational state handling for a rule&#39;s audit comments.">
<polygon fill="white" stroke="black" stroke-width="0.5" points="213.5,-204 101.5,-204 101.5,-185 213.5,-185 213.5,-204"/>
<text text-anchor="middle" x="157.5" y="-192" font-family="Vera Sans, DejaVu Sans, Liberation Sans, Arial, Helvetica, sans" font-size="10.00">RuleAuditComment</text>
</a>
</g>
</g>
<!-- OpState&#45;&gt;RuleAuditComment -->
<g id="edge10" class="edge">
<title>OpState&#45;&gt;RuleAuditComment</title>
<path fill="none" stroke="black" stroke-width="0.5" d="M60.8,-208.51C71.2,-206.98 83.52,-205.18 95.8,-203.38"/>
<polygon fill="black" stroke="black" stroke-width="0.5" points="96.36,-205.07 101.05,-202.61 95.85,-201.61 96.36,-205.07"/>
</g>
<!-- RulebaseHitCount -->
<g id="node15" class="node">
<title>RulebaseHitCount</title>
<g id="a_node15"><a xlink:title="Operational state handling for rulebase hit counts.">
<polygon fill="white" stroke="black" stroke-width="0.5" points="209.5,-167 105.5,-167 105.5,-148 209.5,-148 209.5,-167"/>
<text text-anchor="middle" x="157.5" y="-155" font-family="Vera Sans, DejaVu Sans, Liberation Sans, Arial, Helvetica, sans" font-size="10.00">RulebaseHitCount</text>
</a>
</g>
</g>
<!-- OpState&#45;&gt;RulebaseHitCount -->
<g id="edge12" class="edge">
<title>OpState&#45;&gt;RulebaseHitCount</title>
<path fill="none" stroke="black" stroke-width="0.5" d="M49.78,-202.87C63.23,-195.14 82.97,-184.33 101,-176.5 107.25,-173.78 114.03,-171.19 120.63,-168.84"/>
<polygon fill="black" stroke="black" stroke-width="0.5" points="121.49,-170.39 125.63,-167.09 120.33,-167.09 121.49,-170.39"/>
</g>
<!-- PanObject -->
<g id="node9" class="node">
<title>PanObject</title>
<g id="a_node9"><a xlink:title="Base class for all package objects">
<polygon fill="white" stroke="black" stroke-width="0.5" points="65,-130 0,-130 0,-111 65,-111 65,-130"/>
<text text-anchor="middle" x="32.5" y="-118" font-family="Vera Sans, DejaVu Sans, Liberation Sans, Arial, Helvetica, sans" font-size="10.00">PanObject</text>
</a>
</g>
</g>
<!-- PanObject&#45;&gt;VersionedPanObject -->
<g id="edge14" class="edge">
<title>PanObject&#45;&gt;VersionedPanObject</title>
<path fill="none" stroke="black" stroke-width="0.5" d="M65.18,-120.5C74.47,-120.5 84.97,-120.5 95.45,-120.5"/>
<polygon fill="black" stroke="black" stroke-width="0.5" points="95.59,-122.25 100.59,-120.5 95.59,-118.75 95.59,-122.25"/>
</g>
<!-- PostRulebase -->
<g id="node11" class="node">
<title>PostRulebase</title>
<g id="a_node11"><a xlink:title="Post&#45;rulebase for a Panorama">
<polygon fill="white" stroke="black" stroke-width="0.5" points="499,-74 416,-74 416,-55 499,-55 499,-74"/>
<text text-anchor="middle" x="457.5" y="-62" font-family="Vera Sans, DejaVu Sans, Liberation Sans, Arial, Helvetica, sans" font-size="10.00">PostRulebase</text>
</a>
</g>
</g>
<!-- Rulebase&#45;&gt;PostRulebase -->
<g id="edge8" class="edge">
<title>Rulebase&#45;&gt;PostRulebase</title>
<path fill="none" stroke="black" stroke-width="0.5" d="M346.14,-50.36C364.95,-52.77 389.53,-55.92 410.72,-58.64"/>
<polygon fill="black" stroke="black" stroke-width="0.5" points="410.56,-60.38 415.75,-59.28 411.01,-56.91 410.56,-60.38"/>
</g>
<!-- PreRulebase -->
<g id="node13" class="node">
<title>PreRulebase</title>
<g id="a_node13"><a xlink:title="Pre&#45;rulebase for a Panorama">
<polygon fill="white" stroke="black" stroke-width="0.5" points="496,-37 419,-37 419,-18 496,-18 496,-37"/>
<text text-anchor="middle" x="457.5" y="-25" font-family="Vera Sans, DejaVu Sans, Liberation Sans, Arial, Helvetica, sans" font-size="10.00">PreRulebase</text>
</a>
</g>
</g>
<!-- Rulebase&#45;&gt;PreRulebase -->
<g id="edge9" class="edge">
<title>Rulebase&#45;&gt;PreRulebase</title>
<path fill="none" stroke="black" stroke-width="0.5" d="M346.14,-42.42C365.85,-39.76 391.89,-36.24 413.72,-33.28"/>
<polygon fill="black" stroke="black" stroke-width="0.5" points="414.17,-34.99 418.89,-32.59 413.7,-31.52 414.17,-34.99"/>
</g>
</g>
</svg>
