<?xml version="1.0" encoding="UTF-8" standalone="no"?>
<!DOCTYPE svg PUBLIC "-//W3C//DTD SVG 1.1//EN"
 "http://www.w3.org/Graphics/SVG/1.1/DTD/svg11.dtd">
<!-- Generated by graphviz version 2.43.0 (0)
 -->
<!-- Title: inheritance0251363f9b Pages: 1 -->
<svg width="396pt" height="267pt"
 viewBox="0.00 0.00 396.00 267.00" xmlns="http://www.w3.org/2000/svg" xmlns:xlink="http://www.w3.org/1999/xlink">
<g id="graph0" class="graph" transform="scale(1 1) rotate(0) translate(4 263)">
<title>inheritance0251363f9b</title>
<!-- OpState -->
<g id="node1" class="node">
<title>OpState</title>
<g id="a_node1"><a xlink:title="Parent class for all opstate namespaces.">
<polygon fill="white" stroke="black" stroke-width="0.5" points="81.5,-19 25.5,-19 25.5,0 81.5,0 81.5,-19"/>
<text text-anchor="middle" x="53.5" y="-7" font-family="Vera Sans, DejaVu Sans, Liberation Sans, Arial, Helvetica, sans" font-size="10.00">OpState</text>
</a>
</g>
</g>
<!-- OpStateContainer -->
<g id="node2" class="node">
<title>OpStateContainer</title>
<g id="a_node2"><a xlink:title="Container for all opstate namespaces.">
<polygon fill="white" stroke="black" stroke-width="0.5" points="105,-56 2,-56 2,-37 105,-37 105,-56"/>
<text text-anchor="middle" x="53.5" y="-44" font-family="Vera Sans, DejaVu Sans, Liberation Sans, Arial, Helvetica, sans" font-size="10.00">OpStateContainer</text>
</a>
</g>
</g>
<!-- PanDevice -->
<g id="node3" class="node">
<title>PanDevice</title>
<g id="a_node3"><a xlink:title="A Palo Alto Networks device">
<polygon fill="white" stroke="black" stroke-width="0.5" points="235,-111 167,-111 167,-92 235,-92 235,-111"/>
<text text-anchor="middle" x="201" y="-99" font-family="Vera Sans, DejaVu Sans, Liberation Sans, Arial, Helvetica, sans" font-size="10.00">PanDevice</text>
</a>
</g>
</g>
<!-- PanObject -->
<g id="node4" class="node">
<title>PanObject</title>
<g id="a_node4"><a xlink:title="Base class for all package objects">
<polygon fill="white" stroke="black" stroke-width="0.5" points="86,-93 21,-93 21,-74 86,-74 86,-93"/>
<text text-anchor="middle" x="53.5" y="-81" font-family="Vera Sans, DejaVu Sans, Liberation Sans, Arial, Helvetica, sans" font-size="10.00">PanObject</text>
</a>
</g>
</g>
<!-- PanObject&#45;&gt;PanDevice -->
<g id="edge1" class="edge">
<title>PanObject&#45;&gt;PanDevice</title>
<path fill="none" stroke="black" stroke-width="0.5" d="M86.07,-87.41C108.29,-90.15 138.16,-93.85 161.74,-96.77"/>
<polygon fill="black" stroke="black" stroke-width="0.5" points="161.8,-98.54 166.98,-97.41 162.23,-95.06 161.8,-98.54"/>
</g>
<!-- VersionedPanObject -->
<g id="node8" class="node">
<title>VersionedPanObject</title>
<g id="a_node8"><a xlink:title="Base class for all versioned package objects.">
<polygon fill="white" stroke="black" stroke-width="0.5" points="257.5,-74 144.5,-74 144.5,-55 257.5,-55 257.5,-74"/>
<text text-anchor="middle" x="201" y="-62" font-family="Vera Sans, DejaVu Sans, Liberation Sans, Arial, Helvetica, sans" font-size="10.00">VersionedPanObject</text>
</a>
</g>
</g>
<!-- PanObject&#45;&gt;VersionedPanObject -->
<g id="edge3" class="edge">
<title>PanObject&#45;&gt;VersionedPanObject</title>
<path fill="none" stroke="black" stroke-width="0.5" d="M86.07,-79.38C101.66,-77.34 121,-74.82 139.3,-72.43"/>
<polygon fill="black" stroke="black" stroke-width="0.5" points="139.7,-74.14 144.43,-71.76 139.24,-70.67 139.7,-74.14"/>
</g>
<!-- ParamPath -->
<g id="node5" class="node">
<title>ParamPath</title>
<g id="a_node5"><a xlink:title="Configuration parameter within the object.">
<polygon fill="white" stroke="black" stroke-width="0.5" points="87.5,-130 19.5,-130 19.5,-111 87.5,-111 87.5,-130"/>
<text text-anchor="middle" x="53.5" y="-118" font-family="Vera Sans, DejaVu Sans, Liberation Sans, Arial, Helvetica, sans" font-size="10.00">ParamPath</text>
</a>
</g>
</g>
<!-- ParentAwareXpath -->
<g id="node6" class="node">
<title>ParentAwareXpath</title>
<g id="a_node6"><a xlink:title="Class to handle xpaths of objects.">
<polygon fill="white" stroke="black" stroke-width="0.5" points="107,-167 0,-167 0,-148 107,-148 107,-167"/>
<text text-anchor="middle" x="53.5" y="-155" font-family="Vera Sans, DejaVu Sans, Liberation Sans, Arial, Helvetica, sans" font-size="10.00">ParentAwareXpath</text>
</a>
</g>
</g>
<!-- ValueEntry -->
<g id="node7" class="node">
<title>ValueEntry</title>
<g id="a_node7"><a xlink:title="Base class for objects that only have a value element.">
<polygon fill="white" stroke="black" stroke-width="0.5" points="376,-93 307,-93 307,-74 376,-74 376,-93"/>
<text text-anchor="middle" x="341.5" y="-81" font-family="Vera Sans, DejaVu Sans, Liberation Sans, Arial, Helvetica, sans" font-size="10.00">ValueEntry</text>
</a>
</g>
</g>
<!-- VersionedPanObject&#45;&gt;ValueEntry -->
<g id="edge2" class="edge">
<title>VersionedPanObject&#45;&gt;ValueEntry</title>
<path fill="none" stroke="black" stroke-width="0.5" d="M257.54,-72.12C272.42,-74.16 288.17,-76.32 301.92,-78.21"/>
<polygon fill="black" stroke="black" stroke-width="0.5" points="301.69,-79.94 306.88,-78.89 302.17,-76.47 301.69,-79.94"/>
</g>
<!-- VsysOperations -->
<g id="node13" class="node">
<title>VsysOperations</title>
<g id="a_node13"><a xlink:title="Modify PanObject methods to set vsys import configuration.">
<polygon fill="white" stroke="black" stroke-width="0.5" points="388,-56 295,-56 295,-37 388,-37 388,-56"/>
<text text-anchor="middle" x="341.5" y="-44" font-family="Vera Sans, DejaVu Sans, Liberation Sans, Arial, Helvetica, sans" font-size="10.00">VsysOperations</text>
</a>
</g>
</g>
<!-- VersionedPanObject&#45;&gt;VsysOperations -->
<g id="edge6" class="edge">
<title>VersionedPanObject&#45;&gt;VsysOperations</title>
<path fill="none" stroke="black" stroke-width="0.5" d="M257.54,-57.28C268.14,-55.9 279.2,-54.47 289.65,-53.11"/>
<polygon fill="black" stroke="black" stroke-width="0.5" points="289.99,-54.83 294.72,-52.45 289.54,-51.36 289.99,-54.83"/>
</g>
<!-- VarPath -->
<g id="node9" class="node">
<title>VarPath</title>
<g id="a_node9"><a xlink:title="Configuration variable within the object">
<polygon fill="white" stroke="black" stroke-width="0.5" points="80.5,-204 26.5,-204 26.5,-185 80.5,-185 80.5,-204"/>
<text text-anchor="middle" x="53.5" y="-192" font-family="Vera Sans, DejaVu Sans, Liberation Sans, Arial, Helvetica, sans" font-size="10.00">VarPath</text>
</a>
</g>
</g>
<!-- VersionedParamPath -->
<g id="node10" class="node">
<title>VersionedParamPath</title>
<g id="a_node10"><a xlink:title="A wrapper class for ParamPath objects.">
<polygon fill="white" stroke="black" stroke-width="0.5" points="259,-259 143,-259 143,-240 259,-240 259,-259"/>
<text text-anchor="middle" x="201" y="-247" font-family="Vera Sans, DejaVu Sans, Liberation Sans, Arial, Helvetica, sans" font-size="10.00">VersionedParamPath</text>
</a>
</g>
</g>
<!-- VersioningSupport -->
<g id="node11" class="node">
<title>VersioningSupport</title>
<g id="a_node11"><a xlink:title="A class that supports getting version specific values of something.">
<polygon fill="white" stroke="black" stroke-width="0.5" points="106,-241 1,-241 1,-222 106,-222 106,-241"/>
<text text-anchor="middle" x="53.5" y="-229" font-family="Vera Sans, DejaVu Sans, Liberation Sans, Arial, Helvetica, sans" font-size="10.00">VersioningSupport</text>
</a>
</g>
</g>
<!-- VersioningSupport&#45;&gt;VersionedParamPath -->
<g id="edge4" class="edge">
<title>VersioningSupport&#45;&gt;VersionedParamPath</title>
<path fill="none" stroke="black" stroke-width="0.5" d="M106.21,-237.9C116.32,-239.15 127.02,-240.47 137.43,-241.76"/>
<polygon fill="black" stroke="black" stroke-width="0.5" points="137.34,-243.51 142.52,-242.39 137.77,-240.04 137.34,-243.51"/>
</g>
<!-- VersionedStubs -->
<g id="node12" class="node">
<title>VersionedStubs</title>
<polygon fill="white" stroke="black" stroke-width="0.5" points="247,-222 155,-222 155,-203 247,-203 247,-222"/>
<text text-anchor="middle" x="201" y="-210" font-family="Vera Sans, DejaVu Sans, Liberation Sans, Arial, Helvetica, sans" font-size="10.00">VersionedStubs</text>
</g>
<!-- VersioningSupport&#45;&gt;VersionedStubs -->
<g id="edge5" class="edge">
<title>VersioningSupport&#45;&gt;VersionedStubs</title>
<path fill="none" stroke="black" stroke-width="0.5" d="M106.21,-224.75C120.32,-222.9 135.59,-220.91 149.63,-219.08"/>
<polygon fill="black" stroke="black" stroke-width="0.5" points="150.01,-220.79 154.74,-218.41 149.55,-217.32 150.01,-220.79"/>
</g>
</g>
</svg>
